<svg width="1547" height="1609" viewBox="0 0 1547 1609" fill="none" xmlns="http://www.w3.org/2000/svg">
<path d="M17 148.104V52.0345L100.15 4L183.3 52.035V148.105L100.15 196.14L17 148.104ZM32.15 60.7125V139.427L100.15 178.767L168.15 139.427V60.7125L100.15 21.3725L32.15 60.7125Z" fill="#E68B42"/>
<path d="M57.848 146.37L43.752 138.227L100.023 105.793L156.424 138.299L142.588 146.292L100.026 121.77L57.85 146.37H57.848ZM161.361 129.779L105.483 97.4645L105.438 32.385L119.279 40.3805L119.322 89.4735L161.361 113.497V129.777V129.779ZM38.9375 129.497V113.513L80.862 89.2575L80.6475 40.5975L94.7475 32.4525L94.702 97.2475L38.9375 129.495V129.497Z" fill="#E68B42"/>
<path d="M249.814 122V73.3242H264.523L273.355 106.527L282.088 73.3242H296.83V122H287.699V83.6836L278.037 122H268.574L258.945 83.6836V122H249.814ZM306.525 81.957V73.3242H315.855V81.957H306.525ZM306.525 122V86.7383H315.855V122H306.525ZM357.525 122H348.195V104.004C348.195 100.197 347.996 97.7396 347.598 96.6328C347.199 95.5039 346.546 94.6296 345.639 94.0098C344.753 93.39 343.68 93.0801 342.418 93.0801C340.802 93.0801 339.352 93.5228 338.068 94.4082C336.785 95.2936 335.899 96.4668 335.412 97.9277C334.947 99.3887 334.715 102.089 334.715 106.029V122H325.385V86.7383H334.051V91.918C337.128 87.9336 341.001 85.9414 345.672 85.9414C347.73 85.9414 349.612 86.3177 351.316 87.0703C353.021 87.8008 354.305 88.7415 355.168 89.8926C356.053 91.0436 356.662 92.3496 356.994 93.8105C357.348 95.2715 357.525 97.3633 357.525 100.086V122ZM387.441 110.777L396.738 112.338C395.543 115.747 393.65 118.348 391.061 120.141C388.493 121.911 385.272 122.797 381.398 122.797C375.267 122.797 370.729 120.794 367.785 116.787C365.461 113.577 364.299 109.527 364.299 104.635C364.299 98.791 365.826 94.2201 368.881 90.9219C371.936 87.6016 375.798 85.9414 380.469 85.9414C385.715 85.9414 389.854 87.679 392.887 91.1543C395.919 94.6074 397.369 99.9089 397.236 107.059H373.861C373.928 109.826 374.68 111.984 376.119 113.533C377.558 115.061 379.351 115.824 381.498 115.824C382.959 115.824 384.188 115.426 385.184 114.629C386.18 113.832 386.932 112.548 387.441 110.777ZM387.973 101.348C387.906 98.6471 387.209 96.5996 385.881 95.2051C384.553 93.7884 382.937 93.0801 381.033 93.0801C378.997 93.0801 377.314 93.8216 375.986 95.3047C374.658 96.7878 374.005 98.8021 374.027 101.348H387.973ZM423.4 122V73.3242H432.73V90.8555C435.608 87.5794 439.017 85.9414 442.957 85.9414C447.251 85.9414 450.804 87.502 453.615 90.623C456.426 93.722 457.832 98.1823 457.832 104.004C457.832 110.025 456.393 114.662 453.516 117.916C450.66 121.17 447.185 122.797 443.09 122.797C441.076 122.797 439.083 122.299 437.113 121.303C435.165 120.285 433.483 118.79 432.066 116.82V122H423.4ZM432.664 103.605C432.664 107.258 433.24 109.958 434.391 111.707C436.007 114.186 438.154 115.426 440.832 115.426C442.891 115.426 444.639 114.551 446.078 112.803C447.539 111.032 448.27 108.254 448.27 104.469C448.27 100.44 447.539 97.5404 446.078 95.7695C444.617 93.9766 442.747 93.0801 440.467 93.0801C438.231 93.0801 436.372 93.9544 434.889 95.7031C433.406 97.4297 432.664 100.064 432.664 103.605ZM485.789 110.777L495.086 112.338C493.891 115.747 491.998 118.348 489.408 120.141C486.84 121.911 483.62 122.797 479.746 122.797C473.615 122.797 469.077 120.794 466.133 116.787C463.809 113.577 462.646 109.527 462.646 104.635C462.646 98.791 464.174 94.2201 467.229 90.9219C470.283 87.6016 474.146 85.9414 478.816 85.9414C484.062 85.9414 488.202 87.679 491.234 91.1543C494.267 94.6074 495.717 99.9089 495.584 107.059H472.209C472.275 109.826 473.028 111.984 474.467 113.533C475.906 115.061 477.699 115.824 479.846 115.824C481.307 115.824 482.535 115.426 483.531 114.629C484.527 113.832 485.28 112.548 485.789 110.777ZM486.32 101.348C486.254 98.6471 485.557 96.5996 484.229 95.2051C482.9 93.7884 481.285 93.0801 479.381 93.0801C477.344 93.0801 475.662 93.8216 474.334 95.3047C473.006 96.7878 472.353 98.8021 472.375 101.348H486.32ZM499.137 86.7383H504.316V84.082C504.316 81.1159 504.626 78.9023 505.246 77.4414C505.888 75.9805 507.05 74.7962 508.732 73.8887C510.437 72.959 512.584 72.4941 515.174 72.4941C517.83 72.4941 520.431 72.8926 522.977 73.6895L521.715 80.1973C520.232 79.8431 518.804 79.666 517.432 79.666C516.081 79.666 515.107 79.987 514.51 80.6289C513.934 81.2487 513.646 82.4551 513.646 84.248V86.7383H520.619V94.0762H513.646V122H504.316V94.0762H499.137V86.7383ZM523.707 103.871C523.707 100.772 524.471 97.7728 525.998 94.873C527.525 91.9733 529.684 89.7598 532.473 88.2324C535.284 86.7051 538.416 85.9414 541.869 85.9414C547.204 85.9414 551.576 87.679 554.984 91.1543C558.393 94.6074 560.098 98.9792 560.098 104.27C560.098 109.604 558.371 114.031 554.918 117.551C551.487 121.048 547.16 122.797 541.936 122.797C538.704 122.797 535.616 122.066 532.672 120.605C529.75 119.145 527.525 117.008 525.998 114.197C524.471 111.364 523.707 107.922 523.707 103.871ZM533.27 104.369C533.27 107.867 534.1 110.545 535.76 112.404C537.42 114.264 539.467 115.193 541.902 115.193C544.337 115.193 546.374 114.264 548.012 112.404C549.672 110.545 550.502 107.844 550.502 104.303C550.502 100.85 549.672 98.1934 548.012 96.334C546.374 94.4746 544.337 93.5449 541.902 93.5449C539.467 93.5449 537.42 94.4746 535.76 96.334C534.1 98.1934 533.27 100.872 533.27 104.369ZM576.367 122H567.037V86.7383H575.703V91.752C577.186 89.3835 578.514 87.8229 579.688 87.0703C580.883 86.3177 582.233 85.9414 583.738 85.9414C585.863 85.9414 587.911 86.528 589.881 87.7012L586.992 95.8359C585.421 94.8177 583.96 94.3086 582.609 94.3086C581.303 94.3086 580.197 94.6738 579.289 95.4043C578.382 96.1126 577.662 97.4076 577.131 99.2891C576.622 101.171 576.367 105.111 576.367 111.109V122ZM614.352 110.777L623.648 112.338C622.453 115.747 620.561 118.348 617.971 120.141C615.403 121.911 612.182 122.797 608.309 122.797C602.177 122.797 597.639 120.794 594.695 116.787C592.371 113.577 591.209 109.527 591.209 104.635C591.209 98.791 592.736 94.2201 595.791 90.9219C598.846 87.6016 602.708 85.9414 607.379 85.9414C612.625 85.9414 616.764 87.679 619.797 91.1543C622.829 94.6074 624.279 99.9089 624.146 107.059H600.771C600.838 109.826 601.59 111.984 603.029 113.533C604.468 115.061 606.261 115.824 608.408 115.824C609.869 115.824 611.098 115.426 612.094 114.629C613.09 113.832 613.842 112.548 614.352 110.777ZM614.883 101.348C614.816 98.6471 614.119 96.5996 612.791 95.2051C611.463 93.7884 609.847 93.0801 607.943 93.0801C605.907 93.0801 604.225 93.8216 602.896 95.3047C601.568 96.7878 600.915 98.8021 600.938 101.348H614.883ZM666.879 86.7383V94.1758H660.504V108.387C660.504 111.264 660.559 112.947 660.67 113.434C660.803 113.898 661.079 114.286 661.5 114.596C661.943 114.906 662.474 115.061 663.094 115.061C663.957 115.061 665.208 114.762 666.846 114.164L667.643 121.402C665.473 122.332 663.016 122.797 660.271 122.797C658.589 122.797 657.073 122.52 655.723 121.967C654.372 121.391 653.376 120.661 652.734 119.775C652.115 118.868 651.683 117.65 651.439 116.123C651.24 115.038 651.141 112.847 651.141 109.549V94.1758H646.857V86.7383H651.141V79.7324L660.504 74.2871V86.7383H666.879ZM682.65 73.3242V91.2207C685.661 87.7012 689.258 85.9414 693.441 85.9414C695.589 85.9414 697.525 86.3398 699.252 87.1367C700.979 87.9336 702.273 88.9518 703.137 90.1914C704.022 91.431 704.62 92.8034 704.93 94.3086C705.262 95.8138 705.428 98.1491 705.428 101.314V122H696.098V103.373C696.098 99.6764 695.921 97.3301 695.566 96.334C695.212 95.3379 694.581 94.5521 693.674 93.9766C692.788 93.3789 691.671 93.0801 690.32 93.0801C688.771 93.0801 687.387 93.4564 686.17 94.209C684.952 94.9616 684.056 96.1016 683.48 97.6289C682.927 99.1341 682.65 101.37 682.65 104.336V122H673.32V73.3242H682.65ZM735.344 110.777L744.641 112.338C743.445 115.747 741.553 118.348 738.963 120.141C736.395 121.911 733.174 122.797 729.301 122.797C723.169 122.797 718.632 120.794 715.688 116.787C713.363 113.577 712.201 109.527 712.201 104.635C712.201 98.791 713.729 94.2201 716.783 90.9219C719.838 87.6016 723.701 85.9414 728.371 85.9414C733.617 85.9414 737.757 87.679 740.789 91.1543C743.822 94.6074 745.271 99.9089 745.139 107.059H721.764C721.83 109.826 722.583 111.984 724.021 113.533C725.46 115.061 727.253 115.824 729.4 115.824C730.861 115.824 732.09 115.426 733.086 114.629C734.082 113.832 734.835 112.548 735.344 110.777ZM735.875 101.348C735.809 98.6471 735.111 96.5996 733.783 95.2051C732.455 93.7884 730.839 93.0801 728.936 93.0801C726.899 93.0801 725.217 93.8216 723.889 95.3047C722.561 96.7878 721.908 98.8021 721.93 101.348H735.875ZM803.775 122H794.445V104.004C794.445 100.197 794.246 97.7396 793.848 96.6328C793.449 95.5039 792.796 94.6296 791.889 94.0098C791.003 93.39 789.93 93.0801 788.668 93.0801C787.052 93.0801 785.602 93.5228 784.318 94.4082C783.035 95.2936 782.149 96.4668 781.662 97.9277C781.197 99.3887 780.965 102.089 780.965 106.029V122H771.635V86.7383H780.301V91.918C783.378 87.9336 787.251 85.9414 791.922 85.9414C793.98 85.9414 795.862 86.3177 797.566 87.0703C799.271 87.8008 800.555 88.7415 801.418 89.8926C802.303 91.0436 802.912 92.3496 803.244 93.8105C803.598 95.2715 803.775 97.3633 803.775 100.086V122ZM833.691 110.777L842.988 112.338C841.793 115.747 839.9 118.348 837.311 120.141C834.743 121.911 831.522 122.797 827.648 122.797C821.517 122.797 816.979 120.794 814.035 116.787C811.711 113.577 810.549 109.527 810.549 104.635C810.549 98.791 812.076 94.2201 815.131 90.9219C818.186 87.6016 822.048 85.9414 826.719 85.9414C831.965 85.9414 836.104 87.679 839.137 91.1543C842.169 94.6074 843.619 99.9089 843.486 107.059H820.111C820.178 109.826 820.93 111.984 822.369 113.533C823.808 115.061 825.601 115.824 827.748 115.824C829.209 115.824 830.438 115.426 831.434 114.629C832.43 113.832 833.182 112.548 833.691 110.777ZM834.223 101.348C834.156 98.6471 833.459 96.5996 832.131 95.2051C830.803 93.7884 829.187 93.0801 827.283 93.0801C825.247 93.0801 823.564 93.8216 822.236 95.3047C820.908 96.7878 820.255 98.8021 820.277 101.348H834.223ZM846.641 122L859.357 103.838L847.172 86.7383H858.561L864.803 96.4336L871.377 86.7383H882.334L870.381 103.439L883.43 122H871.975L864.803 111.076L857.564 122H846.641ZM905.145 86.7383V94.1758H898.77V108.387C898.77 111.264 898.825 112.947 898.936 113.434C899.068 113.898 899.345 114.286 899.766 114.596C900.208 114.906 900.74 115.061 901.359 115.061C902.223 115.061 903.473 114.762 905.111 114.164L905.908 121.402C903.739 122.332 901.282 122.797 898.537 122.797C896.855 122.797 895.339 122.52 893.988 121.967C892.638 121.391 891.642 120.661 891 119.775C890.38 118.868 889.949 117.65 889.705 116.123C889.506 115.038 889.406 112.847 889.406 109.549V94.1758H885.123V86.7383H889.406V79.7324L898.77 74.2871V86.7383H905.145ZM939.842 73.3242V91.2207C942.852 87.7012 946.449 85.9414 950.633 85.9414C952.78 85.9414 954.717 86.3398 956.443 87.1367C958.17 87.9336 959.465 88.9518 960.328 90.1914C961.214 91.431 961.811 92.8034 962.121 94.3086C962.453 95.8138 962.619 98.1491 962.619 101.314V122H953.289V103.373C953.289 99.6764 953.112 97.3301 952.758 96.334C952.404 95.3379 951.773 94.5521 950.865 93.9766C949.98 93.3789 948.862 93.0801 947.512 93.0801C945.962 93.0801 944.579 93.4564 943.361 94.209C942.144 94.9616 941.247 96.1016 940.672 97.6289C940.118 99.1341 939.842 101.37 939.842 104.336V122H930.512V73.3242H939.842ZM979.088 97.4961L970.621 95.9688C971.573 92.5599 973.211 90.0365 975.535 88.3984C977.859 86.7604 981.312 85.9414 985.895 85.9414C990.056 85.9414 993.155 86.4395 995.191 87.4355C997.228 88.4095 998.656 89.6602 999.475 91.1875C1000.32 92.6927 1000.74 95.4707 1000.74 99.5215L1000.64 110.412C1000.64 113.511 1000.78 115.802 1001.07 117.285C1001.38 118.746 1001.94 120.318 1002.76 122H993.531C993.288 121.38 992.989 120.462 992.635 119.244C992.48 118.691 992.369 118.326 992.303 118.148C990.709 119.698 989.005 120.86 987.189 121.635C985.374 122.41 983.438 122.797 981.379 122.797C977.749 122.797 974.882 121.812 972.779 119.842C970.699 117.872 969.658 115.382 969.658 112.371C969.658 110.379 970.134 108.608 971.086 107.059C972.038 105.487 973.366 104.292 975.07 103.473C976.797 102.632 979.276 101.901 982.508 101.281C986.868 100.462 989.89 99.6986 991.572 98.9902V98.0605C991.572 96.2676 991.13 94.9948 990.244 94.2422C989.359 93.4674 987.688 93.0801 985.23 93.0801C983.57 93.0801 982.275 93.4121 981.346 94.0762C980.416 94.7181 979.663 95.8581 979.088 97.4961ZM991.572 105.066C990.377 105.465 988.484 105.941 985.895 106.494C983.305 107.048 981.611 107.59 980.814 108.121C979.597 108.984 978.988 110.08 978.988 111.408C978.988 112.714 979.475 113.843 980.449 114.795C981.423 115.747 982.663 116.223 984.168 116.223C985.85 116.223 987.455 115.669 988.982 114.563C990.111 113.721 990.853 112.692 991.207 111.475C991.451 110.678 991.572 109.161 991.572 106.926V105.066ZM1009.97 122V73.3242H1019.3V122H1009.97ZM1038.59 122L1024.38 86.7383H1034.17L1040.81 104.734L1042.74 110.744C1043.25 109.217 1043.57 108.21 1043.7 107.723C1044.01 106.727 1044.34 105.73 1044.7 104.734L1051.4 86.7383H1061L1046.99 122H1038.59ZM1066.74 81.957V73.3242H1076.07V81.957H1066.74ZM1066.74 122V86.7383H1076.07V122H1066.74ZM1117.74 122H1108.41V104.004C1108.41 100.197 1108.21 97.7396 1107.82 96.6328C1107.42 95.5039 1106.76 94.6296 1105.86 94.0098C1104.97 93.39 1103.9 93.0801 1102.64 93.0801C1101.02 93.0801 1099.57 93.5228 1098.29 94.4082C1097 95.2936 1096.12 96.4668 1095.63 97.9277C1095.17 99.3887 1094.93 102.089 1094.93 106.029V122H1085.6V86.7383H1094.27V91.918C1097.35 87.9336 1101.22 85.9414 1105.89 85.9414C1107.95 85.9414 1109.83 86.3177 1111.54 87.0703C1113.24 87.8008 1114.52 88.7415 1115.39 89.8926C1116.27 91.0436 1116.88 92.3496 1117.21 93.8105C1117.57 95.2715 1117.74 97.3633 1117.74 100.086V122ZM1126.38 124.324L1137.04 125.619C1137.21 126.859 1137.62 127.711 1138.26 128.176C1139.15 128.84 1140.54 129.172 1142.45 129.172C1144.88 129.172 1146.71 128.807 1147.93 128.076C1148.74 127.589 1149.36 126.803 1149.79 125.719C1150.07 124.944 1150.22 123.516 1150.22 121.436V116.289C1147.43 120.096 1143.91 122 1139.66 122C1134.92 122 1131.17 119.997 1128.4 115.99C1126.23 112.825 1125.15 108.885 1125.15 104.17C1125.15 98.2598 1126.57 93.7441 1129.4 90.623C1132.25 87.502 1135.8 85.9414 1140.02 85.9414C1144.38 85.9414 1147.98 87.8561 1150.81 91.6855V86.7383H1159.55V118.381C1159.55 122.542 1159.2 125.652 1158.52 127.711C1157.83 129.77 1156.87 131.385 1155.63 132.559C1154.39 133.732 1152.73 134.65 1150.65 135.314C1148.59 135.979 1145.98 136.311 1142.81 136.311C1136.84 136.311 1132.6 135.281 1130.1 133.223C1127.59 131.186 1126.34 128.596 1126.34 125.453C1126.34 125.143 1126.35 124.767 1126.38 124.324ZM1134.71 103.639C1134.71 107.38 1135.43 110.124 1136.87 111.873C1138.33 113.6 1140.12 114.463 1142.25 114.463C1144.53 114.463 1146.45 113.577 1148.03 111.807C1149.6 110.014 1150.38 107.368 1150.38 103.871C1150.38 100.219 1149.63 97.5072 1148.12 95.7363C1146.62 93.9655 1144.72 93.0801 1142.41 93.0801C1140.18 93.0801 1138.33 93.9544 1136.87 95.7031C1135.43 97.4297 1134.71 100.075 1134.71 103.639Z" fill="#E68B42"/>
<path d="M94 1462.02H45.3242V1443.76C45.3242 1440.04 45.8223 1437.06 46.8184 1434.83C47.7923 1432.57 49.3086 1430.81 51.3672 1429.55C53.4036 1428.26 55.5397 1427.62 57.7754 1427.62C59.8561 1427.62 61.8151 1428.19 63.6523 1429.31C65.4896 1430.44 66.9727 1432.15 68.1016 1434.43C68.9648 1431.48 70.4368 1429.23 72.5176 1427.65C74.5983 1426.06 77.0553 1425.26 79.8887 1425.26C82.1686 1425.26 84.2936 1425.75 86.2637 1426.72C88.2116 1427.68 89.7168 1428.86 90.7793 1430.28C91.8418 1431.69 92.6497 1433.48 93.2031 1435.62C93.7344 1437.75 94 1440.36 94 1443.46V1462.02ZM65.7773 1455.58V1445.05C65.7773 1442.2 65.5892 1440.15 65.2129 1438.91C64.7259 1437.27 63.918 1436.04 62.7891 1435.22C61.6602 1434.38 60.2435 1433.96 58.5391 1433.96C56.9232 1433.96 55.5065 1434.35 54.2891 1435.12C53.0495 1435.9 52.2083 1437.01 51.7656 1438.45C51.3008 1439.88 51.0684 1442.35 51.0684 1445.85V1455.58H65.7773ZM88.2559 1455.58V1443.46C88.2559 1441.38 88.1784 1439.92 88.0234 1439.08C87.7578 1437.59 87.3151 1436.35 86.6953 1435.36C86.0755 1434.36 85.179 1433.54 84.0059 1432.9C82.8105 1432.26 81.4382 1431.94 79.8887 1431.94C78.0736 1431.94 76.502 1432.4 75.1738 1433.33C73.8236 1434.26 72.8828 1435.56 72.3516 1437.22C71.7982 1438.85 71.5215 1441.22 71.5215 1444.32V1455.58H88.2559ZM89.6504 1394.15C91.5319 1396.37 92.86 1398.5 93.6348 1400.56C94.4095 1402.6 94.7969 1404.79 94.7969 1407.13C94.7969 1411.01 93.8561 1413.99 91.9746 1416.07C90.071 1418.15 87.6471 1419.19 84.7031 1419.19C82.9766 1419.19 81.4049 1418.8 79.9883 1418.03C78.5495 1417.23 77.3984 1416.2 76.5352 1414.94C75.6719 1413.65 75.0189 1412.21 74.5762 1410.62C74.2663 1409.45 73.9674 1407.68 73.6797 1405.31C73.1042 1400.48 72.418 1396.93 71.6211 1394.65C70.8021 1394.63 70.2819 1394.62 70.0605 1394.62C67.6257 1394.62 65.9102 1395.18 64.9141 1396.31C63.5638 1397.84 62.8887 1400.11 62.8887 1403.12C62.8887 1405.93 63.3867 1408.01 64.3828 1409.36C65.3568 1410.69 67.0944 1411.67 69.5957 1412.31L68.7988 1418.16C66.2975 1417.63 64.2832 1416.75 62.7559 1415.54C61.2064 1414.32 60.0221 1412.56 59.2031 1410.26C58.362 1407.95 57.9414 1405.29 57.9414 1402.25C57.9414 1399.24 58.2956 1396.8 59.0039 1394.92C59.7122 1393.03 60.6087 1391.65 61.6934 1390.77C62.7559 1389.88 64.1061 1389.26 65.7441 1388.91C66.7624 1388.71 68.5996 1388.61 71.2559 1388.61H79.2246C84.7806 1388.61 88.3001 1388.49 89.7832 1388.24C91.2441 1387.98 92.6497 1387.47 94 1386.71V1392.96C92.7604 1393.58 91.3105 1393.98 89.6504 1394.15ZM76.3027 1394.65C77.1882 1396.82 77.9408 1400.07 78.5605 1404.41C78.9147 1406.87 79.3132 1408.61 79.7559 1409.62C80.1986 1410.64 80.8516 1411.43 81.7148 1411.98C82.556 1412.54 83.4967 1412.81 84.5371 1412.81C86.1309 1412.81 87.459 1412.21 88.5215 1411.02C89.584 1409.8 90.1152 1408.03 90.1152 1405.71C90.1152 1403.4 89.6172 1401.36 88.6211 1399.56C87.6029 1397.77 86.2194 1396.45 84.4707 1395.61C83.1204 1394.97 81.1283 1394.65 78.4941 1394.65H76.3027ZM83.4746 1381.7L82.5449 1375.79C84.9134 1375.46 86.7285 1374.54 87.9902 1373.04C89.252 1371.51 89.8828 1369.38 89.8828 1366.66C89.8828 1363.92 89.3294 1361.88 88.2227 1360.55C87.0938 1359.22 85.7767 1358.56 84.2715 1358.56C82.9212 1358.56 81.8587 1359.15 81.084 1360.32C80.5527 1361.14 79.8776 1363.17 79.0586 1366.43C77.9518 1370.81 77 1373.85 76.2031 1375.56C75.3841 1377.24 74.2663 1378.52 72.8496 1379.41C71.4108 1380.27 69.8281 1380.71 68.1016 1380.71C66.5299 1380.71 65.0801 1380.35 63.752 1379.64C62.4017 1378.91 61.2839 1377.93 60.3984 1376.69C59.7122 1375.76 59.1367 1374.5 58.6719 1372.9C58.1849 1371.29 57.9414 1369.56 57.9414 1367.72C57.9414 1364.96 58.3398 1362.53 59.1367 1360.45C59.9336 1358.35 61.0182 1356.8 62.3906 1355.8C63.7409 1354.81 65.556 1354.12 67.8359 1353.74L68.6328 1359.59C66.8177 1359.85 65.401 1360.63 64.3828 1361.91C63.3646 1363.17 62.8555 1364.97 62.8555 1367.29C62.8555 1370.04 63.3092 1371.99 64.2168 1373.17C65.1243 1374.34 66.1868 1374.93 67.4043 1374.93C68.179 1374.93 68.8763 1374.68 69.4961 1374.2C70.138 1373.71 70.6693 1372.95 71.0898 1371.91C71.3112 1371.31 71.8203 1369.55 72.6172 1366.63C73.7461 1362.4 74.6758 1359.46 75.4063 1357.79C76.1146 1356.11 77.1549 1354.8 78.5273 1353.84C79.8997 1352.89 81.6042 1352.42 83.6406 1352.42C85.6328 1352.42 87.5143 1353 89.2852 1354.18C91.0339 1355.33 92.3952 1357 93.3691 1359.19C94.321 1361.38 94.7969 1363.86 94.7969 1366.63C94.7969 1371.21 93.8451 1374.71 91.9414 1377.12C90.0378 1379.51 87.2155 1381.04 83.4746 1381.7ZM82.6445 1321.17L83.4082 1315C87.0163 1315.97 89.8164 1317.77 91.8086 1320.41C93.8008 1323.04 94.7969 1326.41 94.7969 1330.5C94.7969 1335.66 93.2142 1339.75 90.0488 1342.79C86.8613 1345.8 82.401 1347.3 76.668 1347.3C70.7357 1347.3 66.1315 1345.78 62.8555 1342.72C59.5794 1339.67 57.9414 1335.7 57.9414 1330.83C57.9414 1326.12 59.5462 1322.27 62.7559 1319.28C65.9655 1316.29 70.4811 1314.8 76.3027 1314.8C76.6569 1314.8 77.1882 1314.81 77.8965 1314.83V1341.13C81.7702 1340.91 84.7363 1339.81 86.7949 1337.84C88.8535 1335.87 89.8828 1333.41 89.8828 1330.47C89.8828 1328.28 89.3073 1326.41 88.1563 1324.86C87.0052 1323.31 85.168 1322.08 82.6445 1321.17ZM72.9824 1340.79V1321.11C70.0163 1321.37 67.7917 1322.12 66.3086 1323.36C64.0065 1325.27 62.8555 1327.74 62.8555 1330.77C62.8555 1333.51 63.7741 1335.83 65.6113 1337.71C67.4486 1339.57 69.9056 1340.6 72.9824 1340.79ZM94 1287.97H45.3242V1278.27L79.7891 1266.75C82.9987 1265.69 85.4004 1264.91 86.9941 1264.43C85.2233 1263.87 82.6224 1263.01 79.1914 1261.84L45.3242 1250.18V1241.52H94V1247.73H53.2598L94 1261.87V1267.68L52.5625 1281.76H94V1287.97ZM52.1973 1231.86H45.3242V1225.88H52.1973V1231.86ZM94 1231.86H58.7383V1225.88H94V1231.86ZM94 1216.75H58.7383V1211.37H63.752C59.8783 1208.78 57.9414 1205.04 57.9414 1200.15C57.9414 1198.02 58.3288 1196.07 59.1035 1194.3C59.8561 1192.51 60.8522 1191.17 62.0918 1190.29C63.3314 1189.4 64.8034 1188.78 66.5078 1188.43C67.6146 1188.2 69.5514 1188.09 72.3184 1188.09H94V1194.07H72.5508C70.1159 1194.07 68.3008 1194.3 67.1055 1194.77C65.888 1195.23 64.9251 1196.06 64.2168 1197.26C63.4863 1198.43 63.1211 1199.81 63.1211 1201.41C63.1211 1203.95 63.929 1206.16 65.5449 1208.02C67.1608 1209.85 70.2266 1210.77 74.7422 1210.77H94V1216.75ZM52.1973 1178.86H45.3242V1172.89H52.1973V1178.86ZM94 1178.86H58.7383V1172.89H94V1178.86ZM94 1163.76H58.7383V1158.38H63.752C59.8783 1155.79 57.9414 1152.05 57.9414 1147.15C57.9414 1145.03 58.3288 1143.08 59.1035 1141.31C59.8561 1139.52 60.8522 1138.18 62.0918 1137.29C63.3314 1136.41 64.8034 1135.79 66.5078 1135.43C67.6146 1135.21 69.5514 1135.1 72.3184 1135.1H94V1141.08H72.5508C70.1159 1141.08 68.3008 1141.31 67.1055 1141.78C65.888 1142.24 64.9251 1143.07 64.2168 1144.27C63.4863 1145.44 63.1211 1146.82 63.1211 1148.42C63.1211 1150.96 63.929 1153.16 65.5449 1155.02C67.1608 1156.86 70.2266 1157.78 74.7422 1157.78H94V1163.76ZM96.9219 1127L97.7852 1121.19C99.5781 1120.95 100.884 1120.27 101.703 1119.16C102.81 1117.68 103.363 1115.66 103.363 1113.09C103.363 1110.32 102.81 1108.18 101.703 1106.68C100.596 1105.17 99.0469 1104.16 97.0547 1103.62C95.8372 1103.32 93.2806 1103.17 89.3848 1103.19C92.4616 1105.81 94 1109.06 94 1112.96C94 1117.8 92.2513 1121.55 88.7539 1124.21C85.2565 1126.87 81.0618 1128.2 76.1699 1128.2C72.8053 1128.2 69.7064 1127.59 66.873 1126.37C64.0176 1125.15 61.8151 1123.39 60.2656 1121.09C58.7161 1118.77 57.9414 1116.04 57.9414 1112.92C57.9414 1108.76 59.6237 1105.33 62.9883 1102.63H58.7383V1097.12H89.2188C94.7083 1097.12 98.5931 1097.68 100.873 1098.81C103.175 1099.92 104.99 1101.69 106.318 1104.12C107.646 1106.54 108.311 1109.51 108.311 1113.05C108.311 1117.26 107.359 1120.66 105.455 1123.25C103.574 1125.84 100.729 1127.09 96.9219 1127ZM75.7383 1122.05C80.3646 1122.05 83.7402 1121.13 85.8652 1119.3C87.9902 1117.46 89.0527 1115.16 89.0527 1112.39C89.0527 1109.65 88.0013 1107.34 85.8984 1105.48C83.7734 1103.62 80.4531 1102.7 75.9375 1102.7C71.6211 1102.7 68.3672 1103.66 66.1758 1105.58C63.9844 1107.49 62.8887 1109.79 62.8887 1112.49C62.8887 1115.15 63.9733 1117.4 66.1426 1119.26C68.2897 1121.12 71.4883 1122.05 75.7383 1122.05ZM94 1068.26H45.3242V1046.68C45.3242 1042.34 45.7669 1039.04 46.6523 1036.79C47.5156 1034.53 49.054 1032.73 51.2676 1031.38C53.4811 1030.02 55.9271 1029.35 58.6055 1029.35C62.0586 1029.35 64.9694 1030.47 67.3379 1032.7C69.7064 1034.94 71.2116 1038.39 71.8535 1043.06C72.6725 1041.36 73.4805 1040.06 74.2773 1039.18C76.0039 1037.3 78.1621 1035.51 80.752 1033.83L94 1025.37V1033.47L83.873 1039.91C80.9512 1041.79 78.7155 1043.34 77.166 1044.56C75.6165 1045.77 74.5319 1046.87 73.9121 1047.84C73.2923 1048.8 72.8607 1049.77 72.6172 1050.77C72.4622 1051.5 72.3848 1052.69 72.3848 1054.35V1061.82H94V1068.26ZM66.8066 1061.82V1047.98C66.8066 1045.03 66.5078 1042.73 65.9102 1041.07C65.2904 1039.41 64.3164 1038.15 62.9883 1037.29C61.638 1036.42 60.1771 1035.99 58.6055 1035.99C56.3034 1035.99 54.4108 1036.83 52.9277 1038.51C51.4447 1040.17 50.7031 1042.81 50.7031 1046.42V1061.82H66.8066ZM89.6504 996.977C91.5319 999.19 92.86 1001.33 93.6348 1003.38C94.4095 1005.42 94.7969 1007.61 94.7969 1009.96C94.7969 1013.83 93.8561 1016.81 91.9746 1018.89C90.071 1020.97 87.6471 1022.01 84.7031 1022.01C82.9766 1022.01 81.4049 1021.62 79.9883 1020.85C78.5495 1020.05 77.3984 1019.02 76.5352 1017.76C75.6719 1016.48 75.0189 1015.04 74.5762 1013.45C74.2663 1012.27 73.9674 1010.5 73.6797 1008.13C73.1042 1003.31 72.418 999.755 71.6211 997.475C70.8021 997.452 70.2819 997.441 70.0605 997.441C67.6257 997.441 65.9102 998.006 64.9141 999.135C63.5638 1000.66 62.8887 1002.93 62.8887 1005.94C62.8887 1008.75 63.3867 1010.83 64.3828 1012.18C65.3568 1013.51 67.0944 1014.5 69.5957 1015.14L68.7988 1020.98C66.2975 1020.45 64.2832 1019.58 62.7559 1018.36C61.2064 1017.14 60.0221 1015.38 59.2031 1013.08C58.362 1010.78 57.9414 1008.11 57.9414 1005.08C57.9414 1002.07 58.2956 999.622 59.0039 997.74C59.7122 995.859 60.6087 994.475 61.6934 993.59C62.7559 992.704 64.1061 992.085 65.7441 991.73C66.7624 991.531 68.5996 991.432 71.2559 991.432H79.2246C84.7806 991.432 88.3001 991.31 89.7832 991.066C91.2441 990.801 92.6497 990.292 94 989.539V995.781C92.7604 996.401 91.3105 996.799 89.6504 996.977ZM76.3027 997.475C77.1882 999.644 77.9408 1002.9 78.5605 1007.24C78.9147 1009.69 79.3132 1011.43 79.7559 1012.45C80.1986 1013.47 80.8516 1014.25 81.7148 1014.81C82.556 1015.36 83.4967 1015.64 84.5371 1015.64C86.1309 1015.64 87.459 1015.04 88.5215 1013.84C89.584 1012.63 90.1152 1010.86 90.1152 1008.53C90.1152 1006.23 89.6172 1004.18 88.6211 1002.39C87.6029 1000.6 86.2194 999.279 84.4707 998.438C83.1204 997.796 81.1283 997.475 78.4941 997.475H76.3027ZM88.6543 969.086L93.9336 968.223C94.2878 969.905 94.4648 971.41 94.4648 972.738C94.4648 974.908 94.1217 976.59 93.4355 977.785C92.7493 978.98 91.8529 979.822 90.7461 980.309C89.6172 980.796 87.2598 981.039 83.6738 981.039H63.3867V985.422H58.7383V981.039H50.0059L46.4199 975.096H58.7383V969.086H63.3867V975.096H84.0059C85.7103 975.096 86.806 974.996 87.293 974.797C87.7799 974.576 88.1673 974.232 88.4551 973.768C88.7428 973.281 88.8867 972.594 88.8867 971.709C88.8867 971.045 88.8092 970.171 88.6543 969.086ZM82.6445 939.07L83.4082 932.895C87.0163 933.868 89.8164 935.673 91.8086 938.307C93.8008 940.941 94.7969 944.305 94.7969 948.4C94.7969 953.558 93.2142 957.653 90.0488 960.686C86.8613 963.696 82.401 965.201 76.668 965.201C70.7357 965.201 66.1315 963.674 62.8555 960.619C59.5794 957.564 57.9414 953.602 57.9414 948.732C57.9414 944.018 59.5462 940.166 62.7559 937.178C65.9655 934.189 70.4811 932.695 76.3027 932.695C76.6569 932.695 77.1882 932.706 77.8965 932.729V959.025C81.7702 958.804 84.7363 957.708 86.7949 955.738C88.8535 953.768 89.8828 951.311 89.8828 948.367C89.8828 946.176 89.3073 944.305 88.1563 942.756C87.0052 941.206 85.168 939.978 82.6445 939.07ZM72.9824 958.693V939.004C70.0163 939.27 67.7917 940.022 66.3086 941.262C64.0065 943.165 62.8555 945.633 62.8555 948.666C62.8555 951.411 63.7741 953.724 65.6113 955.605C67.4486 957.465 69.9056 958.494 72.9824 958.693Z" fill="white"/>
<path d="M245 349.555C245 345.492 245.414 342.227 246.242 339.758C247.086 337.273 248.328 335.359 249.969 334.016C251.625 332.672 253.703 332 256.203 332C258.047 332 259.664 332.375 261.055 333.125C262.446 333.859 263.594 334.93 264.5 336.336C265.406 337.727 266.117 339.43 266.633 341.445C267.149 343.445 267.406 346.148 267.406 349.555C267.406 353.586 266.992 356.844 266.164 359.328C265.336 361.797 264.094 363.711 262.438 365.07C260.797 366.414 258.719 367.086 256.203 367.086C252.891 367.086 250.289 365.898 248.399 363.523C246.133 360.664 245 356.008 245 349.555ZM249.336 349.555C249.336 355.195 249.992 358.953 251.305 360.828C252.633 362.688 254.266 363.617 256.203 363.617C258.141 363.617 259.766 362.68 261.078 360.805C262.406 358.93 263.07 355.18 263.07 349.555C263.07 343.898 262.406 340.141 261.078 338.281C259.766 336.422 258.125 335.492 256.156 335.492C254.219 335.492 252.672 336.312 251.516 337.953C250.063 340.047 249.336 343.914 249.336 349.555ZM274.086 366.5V361.695H278.891V366.5H274.086ZM291.57 347.867C289.82 347.227 288.524 346.312 287.68 345.125C286.836 343.938 286.414 342.516 286.414 340.859C286.414 338.359 287.313 336.258 289.11 334.555C290.906 332.852 293.297 332 296.281 332C299.281 332 301.696 332.875 303.524 334.625C305.352 336.359 306.266 338.477 306.266 340.977C306.266 342.57 305.844 343.961 305 345.148C304.172 346.32 302.906 347.227 301.203 347.867C303.313 348.555 304.914 349.664 306.008 351.195C307.117 352.727 307.672 354.555 307.672 356.68C307.672 359.617 306.633 362.086 304.555 364.086C302.477 366.086 299.742 367.086 296.352 367.086C292.961 367.086 290.227 366.086 288.149 364.086C286.07 362.07 285.031 359.562 285.031 356.562C285.031 354.328 285.594 352.461 286.719 350.961C287.86 349.445 289.477 348.414 291.57 347.867ZM290.727 340.719C290.727 342.344 291.25 343.672 292.297 344.703C293.344 345.734 294.703 346.25 296.375 346.25C298 346.25 299.328 345.742 300.36 344.727C301.406 343.695 301.93 342.438 301.93 340.953C301.93 339.406 301.391 338.109 300.313 337.062C299.25 336 297.922 335.469 296.328 335.469C294.719 335.469 293.383 335.984 292.32 337.016C291.258 338.047 290.727 339.281 290.727 340.719ZM289.367 356.586C289.367 357.789 289.649 358.953 290.211 360.078C290.789 361.203 291.641 362.078 292.766 362.703C293.891 363.312 295.102 363.617 296.399 363.617C298.414 363.617 300.078 362.969 301.391 361.672C302.703 360.375 303.36 358.727 303.36 356.727C303.36 354.695 302.68 353.016 301.32 351.688C299.977 350.359 298.289 349.695 296.258 349.695C294.274 349.695 292.625 350.352 291.313 351.664C290.016 352.977 289.367 354.617 289.367 356.586ZM326.414 366.5V346.297H318.867V343.594H337.024V346.297H329.446V366.5H326.414ZM356.492 358.469L359.524 359.234C358.888 361.724 357.742 363.625 356.086 364.938C354.44 366.24 352.425 366.891 350.039 366.891C347.57 366.891 345.56 366.391 344.008 365.391C342.466 364.38 341.289 362.922 340.477 361.016C339.675 359.109 339.274 357.062 339.274 354.875C339.274 352.49 339.727 350.411 340.633 348.641C341.55 346.859 342.847 345.51 344.524 344.594C346.211 343.667 348.065 343.203 350.086 343.203C352.378 343.203 354.305 343.786 355.867 344.953C357.43 346.12 358.518 347.76 359.133 349.875L356.149 350.578C355.617 348.911 354.847 347.698 353.836 346.938C352.826 346.177 351.555 345.797 350.024 345.797C348.263 345.797 346.789 346.219 345.602 347.062C344.425 347.906 343.597 349.042 343.117 350.469C342.638 351.885 342.399 353.349 342.399 354.859C342.399 356.807 342.68 358.51 343.242 359.969C343.815 361.417 344.701 362.5 345.899 363.219C347.097 363.938 348.393 364.297 349.789 364.297C351.487 364.297 352.925 363.807 354.102 362.828C355.279 361.849 356.076 360.396 356.492 358.469ZM379.617 358.469L382.649 359.234C382.013 361.724 380.867 363.625 379.211 364.938C377.565 366.24 375.55 366.891 373.164 366.891C370.696 366.891 368.685 366.391 367.133 365.391C365.591 364.38 364.414 362.922 363.602 361.016C362.8 359.109 362.399 357.062 362.399 354.875C362.399 352.49 362.852 350.411 363.758 348.641C364.675 346.859 365.972 345.51 367.649 344.594C369.336 343.667 371.19 343.203 373.211 343.203C375.503 343.203 377.43 343.786 378.992 344.953C380.555 346.12 381.643 347.76 382.258 349.875L379.274 350.578C378.742 348.911 377.972 347.698 376.961 346.938C375.951 346.177 374.68 345.797 373.149 345.797C371.388 345.797 369.914 346.219 368.727 347.062C367.55 347.906 366.722 349.042 366.242 350.469C365.763 351.885 365.524 353.349 365.524 354.859C365.524 356.807 365.805 358.51 366.367 359.969C366.94 361.417 367.826 362.5 369.024 363.219C370.222 363.938 371.518 364.297 372.914 364.297C374.612 364.297 376.05 363.807 377.227 362.828C378.404 361.849 379.201 360.396 379.617 358.469ZM383.93 366.891L390.57 343.203H392.82L386.196 366.891H383.93ZM394.946 366.5V343.594H397.758V351.812C399.07 350.292 400.727 349.531 402.727 349.531C403.956 349.531 405.024 349.776 405.93 350.266C406.836 350.745 407.482 351.411 407.867 352.266C408.263 353.12 408.461 354.359 408.461 355.984V366.5H405.649V355.984C405.649 354.578 405.341 353.557 404.727 352.922C404.123 352.276 403.263 351.953 402.149 351.953C401.315 351.953 400.529 352.172 399.789 352.609C399.06 353.036 398.539 353.62 398.227 354.359C397.914 355.099 397.758 356.12 397.758 357.422V366.5H394.946Z" fill="white"/>
<path d="M424.156 882C427.484 882 430.086 883.19 431.961 885.56C434.195 888.38 435.312 893.04 435.312 899.55C435.312 906.05 434.187 910.73 431.937 913.57C430.078 915.91 427.484 917.09 424.156 917.09C420.812 917.09 418.117 915.8 416.07 913.24C414.023 910.66 413 906.08 413 899.48C413 893.02 414.125 888.36 416.375 885.52C418.234 883.17 420.828 882 424.156 882ZM424.156 887.46C423.359 887.46 422.648 887.72 422.023 888.23C421.398 888.73 420.914 889.64 420.57 890.95C420.117 892.66 419.89 895.52 419.89 899.55C419.89 903.59 420.093 906.36 420.5 907.88C420.906 909.38 421.414 910.38 422.023 910.88C422.648 911.38 423.359 911.62 424.156 911.62C424.953 911.62 425.664 911.38 426.289 910.88C426.914 910.36 427.398 909.45 427.742 908.13C428.195 906.45 428.422 903.59 428.422 899.55C428.422 895.52 428.218 892.76 427.812 891.26C427.406 889.74 426.89 888.73 426.265 888.23C425.656 887.72 424.953 887.46 424.156 887.46ZM441.148 916.5V909.91H447.734V916.5H441.148ZM466.015 916.5V909.59H451.953V903.82L466.859 882H472.39V903.8H476.656V909.59H472.39V916.5H466.015ZM466.015 903.8V892.05L458.117 903.8H466.015ZM494.984 916.5V896.3H487.437V893.59H505.593V896.3H498.015V916.5H494.984ZM525.062 908.47L528.093 909.23C527.458 911.72 526.312 913.62 524.656 914.94C523.01 916.24 520.994 916.89 518.609 916.89C516.14 916.89 514.13 916.39 512.578 915.39C511.036 914.38 509.859 912.92 509.046 911.02C508.244 909.11 507.843 907.06 507.843 904.88C507.843 902.49 508.296 900.41 509.203 898.64C510.119 896.86 511.416 895.51 513.093 894.59C514.781 893.67 516.635 893.2 518.656 893.2C520.948 893.2 522.875 893.79 524.437 894.95C526 896.12 527.088 897.76 527.703 899.88L524.718 900.58C524.187 898.91 523.416 897.7 522.406 896.94C521.395 896.18 520.125 895.8 518.593 895.8C516.833 895.8 515.359 896.22 514.172 897.06C512.994 897.91 512.166 899.04 511.687 900.47C511.208 901.89 510.968 903.35 510.968 904.86C510.968 906.81 511.25 908.51 511.812 909.97C512.385 911.42 513.27 912.5 514.468 913.22C515.666 913.94 516.963 914.3 518.359 914.3C520.057 914.3 521.494 913.81 522.672 912.83C523.849 911.85 524.645 910.4 525.062 908.47ZM548.187 908.47L551.218 909.23C550.583 911.72 549.437 913.62 547.781 914.94C546.135 916.24 544.119 916.89 541.734 916.89C539.265 916.89 537.255 916.39 535.703 915.39C534.161 914.38 532.984 912.92 532.172 911.02C531.369 909.11 530.968 907.06 530.968 904.88C530.968 902.49 531.422 900.41 532.328 898.64C533.244 896.86 534.541 895.51 536.218 894.59C537.906 893.67 539.76 893.2 541.781 893.2C544.073 893.2 546 893.79 547.562 894.95C549.125 896.12 550.213 897.76 550.828 899.88L547.843 900.58C547.312 898.91 546.541 897.7 545.531 896.94C544.52 896.18 543.25 895.8 541.718 895.8C539.958 895.8 538.484 896.22 537.296 897.06C536.119 897.91 535.291 899.04 534.812 900.47C534.333 901.89 534.093 903.35 534.093 904.86C534.093 906.81 534.375 908.51 534.937 909.97C535.51 911.42 536.395 912.5 537.593 913.22C538.791 913.94 540.088 914.3 541.484 914.3C543.182 914.3 544.619 913.81 545.796 912.83C546.974 911.85 547.77 910.4 548.187 908.47ZM552.5 916.89L559.14 893.2H561.39L554.765 916.89H552.5ZM563.515 916.5V893.59H566.328V901.81C567.64 900.29 569.296 899.53 571.296 899.53C572.526 899.53 573.593 899.78 574.5 900.27C575.406 900.74 576.052 901.41 576.437 902.27C576.833 903.12 577.031 904.36 577.031 905.98V916.5H574.218V905.98C574.218 904.58 573.911 903.56 573.296 902.92C572.692 902.28 571.833 901.95 570.718 901.95C569.885 901.95 569.099 902.17 568.359 902.61C567.63 903.04 567.109 903.62 566.796 904.36C566.484 905.1 566.328 906.12 566.328 907.42V916.5H563.515Z" fill="white"/>
<path d="M608.156 1153C611.484 1153 614.086 1154.19 615.961 1156.56C618.195 1159.38 619.312 1164.04 619.312 1170.55C619.312 1177.05 618.187 1181.73 615.937 1184.57C614.078 1186.91 611.484 1188.09 608.156 1188.09C604.812 1188.09 602.117 1186.8 600.07 1184.24C598.023 1181.66 597 1177.08 597 1170.48C597 1164.02 598.125 1159.36 600.375 1156.52C602.234 1154.17 604.828 1153 608.156 1153ZM608.156 1158.46C607.359 1158.46 606.648 1158.72 606.023 1159.23C605.398 1159.73 604.914 1160.64 604.57 1161.95C604.117 1163.66 603.89 1166.52 603.89 1170.55C603.89 1174.59 604.093 1177.36 604.5 1178.88C604.906 1180.38 605.414 1181.38 606.023 1181.88C606.648 1182.38 607.359 1182.62 608.156 1182.62C608.953 1182.62 609.664 1182.38 610.289 1181.88C610.914 1181.36 611.398 1180.45 611.742 1179.13C612.195 1177.45 612.422 1174.59 612.422 1170.55C612.422 1166.52 612.218 1163.76 611.812 1162.26C611.406 1160.74 610.89 1159.73 610.265 1159.23C609.656 1158.72 608.953 1158.46 608.156 1158.46ZM625.148 1187.5V1180.91H631.734V1187.5H625.148ZM659.343 1181.38V1187.5H636.257C636.507 1185.19 637.257 1183 638.507 1180.94C639.757 1178.86 642.226 1176.11 645.914 1172.69C648.882 1169.92 650.703 1168.05 651.375 1167.06C652.281 1165.7 652.734 1164.36 652.734 1163.03C652.734 1161.56 652.336 1160.44 651.539 1159.66C650.757 1158.86 649.672 1158.46 648.281 1158.46C646.906 1158.46 645.812 1158.88 645 1159.7C644.187 1160.53 643.718 1161.91 643.593 1163.83L637.031 1163.17C637.422 1159.55 638.648 1156.95 640.711 1155.37C642.773 1153.79 645.351 1153 648.445 1153C651.836 1153 654.5 1153.91 656.437 1155.74C658.375 1157.57 659.343 1159.84 659.343 1162.56C659.343 1164.11 659.062 1165.59 658.5 1166.99C657.953 1168.38 657.078 1169.84 655.875 1171.38C655.078 1172.39 653.64 1173.85 651.562 1175.76C649.484 1177.66 648.164 1178.93 647.601 1179.55C647.054 1180.18 646.609 1180.79 646.265 1181.38H659.343ZM678.984 1187.5V1167.3H671.437V1164.59H689.593V1167.3H682.015V1187.5H678.984ZM709.062 1179.47L712.093 1180.23C711.458 1182.72 710.312 1184.62 708.656 1185.94C707.01 1187.24 704.994 1187.89 702.609 1187.89C700.14 1187.89 698.13 1187.39 696.578 1186.39C695.036 1185.38 693.859 1183.92 693.046 1182.02C692.244 1180.11 691.843 1178.06 691.843 1175.88C691.843 1173.49 692.296 1171.41 693.203 1169.64C694.119 1167.86 695.416 1166.51 697.093 1165.59C698.781 1164.67 700.635 1164.2 702.656 1164.2C704.948 1164.2 706.875 1164.79 708.437 1165.95C710 1167.12 711.088 1168.76 711.703 1170.88L708.718 1171.58C708.187 1169.91 707.416 1168.7 706.406 1167.94C705.395 1167.18 704.125 1166.8 702.593 1166.8C700.833 1166.8 699.359 1167.22 698.172 1168.06C696.994 1168.91 696.166 1170.04 695.687 1171.47C695.208 1172.89 694.968 1174.35 694.968 1175.86C694.968 1177.81 695.25 1179.51 695.812 1180.97C696.385 1182.42 697.27 1183.5 698.468 1184.22C699.666 1184.94 700.963 1185.3 702.359 1185.3C704.057 1185.3 705.494 1184.81 706.672 1183.83C707.849 1182.85 708.645 1181.4 709.062 1179.47ZM732.187 1179.47L735.218 1180.23C734.583 1182.72 733.437 1184.62 731.781 1185.94C730.135 1187.24 728.119 1187.89 725.734 1187.89C723.265 1187.89 721.255 1187.39 719.703 1186.39C718.161 1185.38 716.984 1183.92 716.172 1182.02C715.369 1180.11 714.968 1178.06 714.968 1175.88C714.968 1173.49 715.422 1171.41 716.328 1169.64C717.244 1167.86 718.541 1166.51 720.218 1165.59C721.906 1164.67 723.76 1164.2 725.781 1164.2C728.073 1164.2 730 1164.79 731.562 1165.95C733.125 1167.12 734.213 1168.76 734.828 1170.88L731.843 1171.58C731.312 1169.91 730.541 1168.7 729.531 1167.94C728.52 1167.18 727.25 1166.8 725.718 1166.8C723.958 1166.8 722.484 1167.22 721.296 1168.06C720.119 1168.91 719.291 1170.04 718.812 1171.47C718.333 1172.89 718.093 1174.35 718.093 1175.86C718.093 1177.81 718.375 1179.51 718.937 1180.97C719.51 1182.42 720.395 1183.5 721.593 1184.22C722.791 1184.94 724.088 1185.3 725.484 1185.3C727.182 1185.3 728.619 1184.81 729.796 1183.83C730.974 1182.85 731.77 1181.4 732.187 1179.47ZM736.5 1187.89L743.14 1164.2H745.39L738.765 1187.89H736.5ZM747.515 1187.5V1164.59H750.328V1172.81C751.64 1171.29 753.296 1170.53 755.296 1170.53C756.526 1170.53 757.593 1170.78 758.5 1171.27C759.406 1171.74 760.052 1172.41 760.437 1173.27C760.833 1174.12 761.031 1175.36 761.031 1176.98V1187.5H758.218V1176.98C758.218 1175.58 757.911 1174.56 757.296 1173.92C756.692 1173.28 755.833 1172.95 754.718 1172.95C753.885 1172.95 753.099 1173.17 752.359 1173.61C751.63 1174.04 751.109 1174.62 750.796 1175.36C750.484 1176.1 750.328 1177.12 750.328 1178.42V1187.5H747.515Z" fill="white"/>
<path d="M790.156 1299C793.484 1299 796.086 1300.19 797.961 1302.56C800.195 1305.38 801.312 1310.04 801.312 1316.55C801.312 1323.05 800.187 1327.73 797.937 1330.57C796.078 1332.91 793.484 1334.09 790.156 1334.09C786.812 1334.09 784.117 1332.8 782.07 1330.24C780.023 1327.66 779 1323.08 779 1316.48C779 1310.02 780.125 1305.36 782.375 1302.52C784.234 1300.17 786.828 1299 790.156 1299ZM790.156 1304.46C789.359 1304.46 788.648 1304.72 788.023 1305.23C787.398 1305.73 786.914 1306.64 786.57 1307.95C786.117 1309.66 785.89 1312.52 785.89 1316.55C785.89 1320.59 786.093 1323.36 786.5 1324.88C786.906 1326.38 787.414 1327.38 788.023 1327.88C788.648 1328.38 789.359 1328.62 790.156 1328.62C790.953 1328.62 791.664 1328.38 792.289 1327.88C792.914 1327.36 793.398 1326.45 793.742 1325.13C794.195 1323.45 794.422 1320.59 794.422 1316.55C794.422 1312.52 794.218 1309.76 793.812 1308.26C793.406 1306.74 792.89 1305.73 792.265 1305.23C791.656 1304.72 790.953 1304.46 790.156 1304.46ZM807.148 1333.5V1326.91H813.734V1333.5H807.148ZM835.953 1333.5H829.367V1308.68C826.961 1310.93 824.125 1312.59 820.859 1313.67V1307.7C822.578 1307.13 824.445 1306.07 826.461 1304.51C828.476 1302.93 829.859 1301.09 830.609 1299H835.953V1333.5ZM860.984 1333.5V1313.3H853.437V1310.59H871.593V1313.3H864.015V1333.5H860.984ZM891.062 1325.47L894.093 1326.23C893.458 1328.72 892.312 1330.62 890.656 1331.94C889.01 1333.24 886.994 1333.89 884.609 1333.89C882.14 1333.89 880.13 1333.39 878.578 1332.39C877.036 1331.38 875.859 1329.92 875.046 1328.02C874.244 1326.11 873.843 1324.06 873.843 1321.88C873.843 1319.49 874.296 1317.41 875.203 1315.64C876.119 1313.86 877.416 1312.51 879.093 1311.59C880.781 1310.67 882.635 1310.2 884.656 1310.2C886.948 1310.2 888.875 1310.79 890.437 1311.95C892 1313.12 893.088 1314.76 893.703 1316.88L890.718 1317.58C890.187 1315.91 889.416 1314.7 888.406 1313.94C887.395 1313.18 886.125 1312.8 884.593 1312.8C882.833 1312.8 881.359 1313.22 880.172 1314.06C878.994 1314.91 878.166 1316.04 877.687 1317.47C877.208 1318.89 876.968 1320.35 876.968 1321.86C876.968 1323.81 877.25 1325.51 877.812 1326.97C878.385 1328.42 879.27 1329.5 880.468 1330.22C881.666 1330.94 882.963 1331.3 884.359 1331.3C886.057 1331.3 887.494 1330.81 888.672 1329.83C889.849 1328.85 890.645 1327.4 891.062 1325.47ZM914.187 1325.47L917.218 1326.23C916.583 1328.72 915.437 1330.62 913.781 1331.94C912.135 1333.24 910.119 1333.89 907.734 1333.89C905.265 1333.89 903.255 1333.39 901.703 1332.39C900.161 1331.38 898.984 1329.92 898.172 1328.02C897.369 1326.11 896.968 1324.06 896.968 1321.88C896.968 1319.49 897.422 1317.41 898.328 1315.64C899.244 1313.86 900.541 1312.51 902.218 1311.59C903.906 1310.67 905.76 1310.2 907.781 1310.2C910.073 1310.2 912 1310.79 913.562 1311.95C915.125 1313.12 916.213 1314.76 916.828 1316.88L913.843 1317.58C913.312 1315.91 912.541 1314.7 911.531 1313.94C910.52 1313.18 909.25 1312.8 907.718 1312.8C905.958 1312.8 904.484 1313.22 903.296 1314.06C902.119 1314.91 901.291 1316.04 900.812 1317.47C900.333 1318.89 900.093 1320.35 900.093 1321.86C900.093 1323.81 900.375 1325.51 900.937 1326.97C901.51 1328.42 902.395 1329.5 903.593 1330.22C904.791 1330.94 906.088 1331.3 907.484 1331.3C909.182 1331.3 910.619 1330.81 911.796 1329.83C912.974 1328.85 913.77 1327.4 914.187 1325.47ZM918.5 1333.89L925.14 1310.2H927.39L920.765 1333.89H918.5ZM929.515 1333.5V1310.59H932.324V1318.81C933.644 1317.29 935.294 1316.53 937.294 1316.53C938.524 1316.53 939.594 1316.78 940.504 1317.27C941.404 1317.74 942.054 1318.41 942.434 1319.27C942.834 1320.12 943.034 1321.36 943.034 1322.98V1333.5H940.214V1322.98C940.214 1321.58 939.914 1320.56 939.294 1319.92C938.694 1319.28 937.834 1318.95 936.714 1318.95C935.884 1318.95 935.094 1319.17 934.364 1319.61C933.634 1320.04 933.104 1320.62 932.794 1321.36C932.484 1322.1 932.324 1323.12 932.324 1324.42V1333.5H929.515Z" fill="white"/>
<path d="M978.436 1389.3C980.656 1389.3 982.386 1390.09 983.636 1391.68C985.126 1393.55 985.876 1396.66 985.876 1401C985.876 1405.34 985.126 1408.45 983.626 1410.35C982.386 1411.91 980.656 1412.69 978.436 1412.69C976.206 1412.69 974.416 1411.84 973.047 1410.13C971.682 1408.41 971 1405.35 971 1400.96C971 1396.64 971.75 1393.54 973.25 1391.64C974.486 1390.08 976.216 1389.3 978.436 1389.3ZM978.436 1392.94C977.906 1392.94 977.436 1393.11 977.016 1393.46C976.596 1393.79 976.276 1394.39 976.046 1395.27C975.746 1396.4 975.596 1398.32 975.596 1401C975.596 1403.69 975.726 1405.54 975.996 1406.55C976.266 1407.55 976.606 1408.22 977.016 1408.55C977.436 1408.88 977.906 1409.05 978.436 1409.05C978.966 1409.05 979.446 1408.88 979.856 1408.55C980.276 1408.21 980.596 1407.6 980.826 1406.72C981.126 1405.6 981.276 1403.69 981.276 1401C981.276 1398.32 981.146 1396.47 980.876 1395.47C980.606 1394.46 980.256 1393.79 979.846 1393.46C979.436 1393.11 978.966 1392.94 978.436 1392.94ZM989.766 1412.3V1407.91H994.156V1412.3H989.766ZM1005.16 1389.3C1007.38 1389.3 1009.11 1390.09 1010.36 1391.68C1011.85 1393.55 1012.6 1396.66 1012.6 1401C1012.6 1405.34 1011.85 1408.45 1010.35 1410.35C1009.11 1411.91 1007.38 1412.69 1005.16 1412.69C1002.93 1412.69 1001.13 1411.84 999.766 1410.13C998.396 1408.41 997.716 1405.35 997.716 1400.96C997.716 1396.64 998.466 1393.54 999.966 1391.64C1001.21 1390.08 1002.94 1389.3 1005.16 1389.3ZM1005.16 1392.94C1004.63 1392.94 1004.15 1393.11 1003.74 1393.46C1003.32 1393.79 1003 1394.39 1002.77 1395.27C1002.47 1396.4 1002.32 1398.32 1002.32 1401C1002.32 1403.69 1002.45 1405.54 1002.72 1406.55C1002.99 1407.55 1003.33 1408.22 1003.74 1408.55C1004.15 1408.88 1004.63 1409.05 1005.16 1409.05C1005.69 1409.05 1006.17 1408.88 1006.58 1408.55C1007 1408.21 1007.32 1407.6 1007.55 1406.72C1007.85 1405.6 1008 1403.69 1008 1401C1008 1398.32 1007.87 1396.47 1007.6 1395.47C1007.33 1394.46 1006.98 1393.79 1006.57 1393.46C1006.16 1393.11 1005.69 1392.94 1005.16 1392.94ZM1015.61 1406.41L1019.99 1405.96C1020.11 1406.95 1020.48 1407.73 1021.1 1408.32C1021.71 1408.89 1022.42 1409.18 1023.22 1409.18C1024.14 1409.18 1024.92 1408.81 1025.55 1408.07C1026.19 1407.32 1026.5 1406.19 1026.5 1404.69C1026.5 1403.28 1026.19 1402.23 1025.55 1401.53C1024.93 1400.83 1024.11 1400.47 1023.1 1400.47C1021.84 1400.47 1020.71 1401.03 1019.71 1402.14L1016.14 1401.63L1018.39 1389.71H1030V1393.82H1021.72L1021.04 1397.71C1022.01 1397.22 1023.01 1396.97 1024.04 1396.97C1025.98 1396.97 1027.63 1397.68 1028.99 1399.1C1030.34 1400.51 1031.02 1402.35 1031.02 1404.61C1031.02 1406.5 1030.47 1408.18 1029.38 1409.66C1027.89 1411.68 1025.82 1412.69 1023.18 1412.69C1021.06 1412.69 1019.34 1412.12 1018 1410.99C1016.67 1409.85 1015.87 1408.33 1015.61 1406.41ZM1049.21 1412.3V1392.1H1041.66V1389.39H1059.82V1392.1H1052.24V1412.3H1049.21ZM1079.28 1404.27L1082.32 1405.03C1081.68 1407.52 1080.54 1409.42 1078.88 1410.74C1077.23 1412.04 1075.22 1412.69 1072.83 1412.69C1070.36 1412.69 1068.35 1412.19 1066.8 1411.19C1065.26 1410.18 1064.08 1408.72 1063.27 1406.82C1062.47 1404.91 1062.07 1402.86 1062.07 1400.68C1062.07 1398.29 1062.52 1396.21 1063.43 1394.44C1064.34 1392.66 1065.64 1391.31 1067.32 1390.39C1069 1389.47 1070.86 1389 1072.88 1389C1075.17 1389 1077.1 1389.59 1078.66 1390.75C1080.22 1391.92 1081.31 1393.56 1081.93 1395.68L1078.94 1396.38C1078.41 1394.71 1077.64 1393.5 1076.63 1392.74C1075.62 1391.98 1074.35 1391.6 1072.82 1391.6C1071.06 1391.6 1069.58 1392.02 1068.39 1392.86C1067.22 1393.71 1066.39 1394.84 1065.91 1396.27C1065.43 1397.69 1065.19 1399.15 1065.19 1400.66C1065.19 1402.61 1065.47 1404.31 1066.04 1405.77C1066.61 1407.22 1067.49 1408.3 1068.69 1409.02C1069.89 1409.74 1071.19 1410.1 1072.58 1410.1C1074.28 1410.1 1075.72 1409.61 1076.89 1408.63C1078.07 1407.65 1078.87 1406.2 1079.28 1404.27ZM1102.41 1404.27L1105.44 1405.03C1104.81 1407.52 1103.66 1409.42 1102 1410.74C1100.36 1412.04 1098.34 1412.69 1095.96 1412.69C1093.49 1412.69 1091.48 1412.19 1089.93 1411.19C1088.38 1410.18 1087.21 1408.72 1086.39 1406.82C1085.59 1404.91 1085.19 1402.86 1085.19 1400.68C1085.19 1398.29 1085.64 1396.21 1086.55 1394.44C1087.47 1392.66 1088.76 1391.31 1090.44 1390.39C1092.13 1389.47 1093.98 1389 1096 1389C1098.3 1389 1100.22 1389.59 1101.78 1390.75C1103.35 1391.92 1104.44 1393.56 1105.05 1395.68L1102.07 1396.38C1101.54 1394.71 1100.76 1393.5 1099.75 1392.74C1098.74 1391.98 1097.47 1391.6 1095.94 1391.6C1094.18 1391.6 1092.71 1392.02 1091.52 1392.86C1090.34 1393.71 1089.51 1394.84 1089.04 1396.27C1088.56 1397.69 1088.32 1399.15 1088.32 1400.66C1088.32 1402.61 1088.6 1404.31 1089.16 1405.77C1089.73 1407.22 1090.62 1408.3 1091.82 1409.02C1093.01 1409.74 1094.31 1410.1 1095.71 1410.1C1097.4 1410.1 1098.84 1409.61 1100.02 1408.63C1101.2 1407.65 1101.99 1406.2 1102.41 1404.27ZM1106.72 1412.69L1113.36 1389H1115.61L1108.99 1412.69H1106.72ZM1117.74 1412.3V1389.39H1120.55V1397.61C1121.86 1396.09 1123.52 1395.33 1125.52 1395.33C1126.75 1395.33 1127.82 1395.58 1128.72 1396.07C1129.63 1396.54 1130.27 1397.21 1130.66 1398.07C1131.06 1398.92 1131.25 1400.16 1131.25 1401.78V1412.3H1128.44V1401.78C1128.44 1400.38 1128.13 1399.36 1127.52 1398.72C1126.92 1398.08 1126.06 1397.75 1124.94 1397.75C1124.11 1397.75 1123.32 1397.97 1122.58 1398.41C1121.85 1398.84 1121.33 1399.42 1121.02 1400.16C1120.71 1400.9 1120.55 1401.92 1120.55 1403.22V1412.3H1117.74Z" fill="white"/>
<path d="M1167.44 1450.3C1169.66 1450.3 1171.39 1451.09 1172.64 1452.68C1174.13 1454.55 1174.88 1457.66 1174.88 1462C1174.88 1466.34 1174.13 1469.45 1172.63 1471.35C1171.39 1472.91 1169.66 1473.69 1167.44 1473.69C1165.21 1473.69 1163.42 1472.84 1162.05 1471.13C1160.69 1469.41 1160 1466.35 1160 1461.96C1160 1457.64 1160.75 1454.54 1162.25 1452.64C1163.49 1451.08 1165.22 1450.3 1167.44 1450.3ZM1167.44 1453.94C1166.91 1453.94 1166.44 1454.11 1166.02 1454.46C1165.6 1454.79 1165.28 1455.39 1165.05 1456.27C1164.75 1457.4 1164.6 1459.32 1164.6 1462C1164.6 1464.69 1164.73 1466.54 1165 1467.55C1165.27 1468.55 1165.61 1469.22 1166.02 1469.55C1166.44 1469.88 1166.91 1470.05 1167.44 1470.05C1167.97 1470.05 1168.45 1469.88 1168.86 1469.55C1169.28 1469.21 1169.6 1468.6 1169.83 1467.72C1170.13 1466.6 1170.28 1464.69 1170.28 1462C1170.28 1459.32 1170.15 1457.47 1169.88 1456.47C1169.61 1455.46 1169.26 1454.79 1168.85 1454.46C1168.44 1454.11 1167.97 1453.94 1167.44 1453.94ZM1193.68 1473.3V1453.1H1186.13V1450.39H1204.28V1453.1H1196.71V1473.3H1193.68ZM1223.75 1465.27L1226.78 1466.03C1226.15 1468.52 1225 1470.42 1223.35 1471.74C1221.7 1473.04 1219.69 1473.69 1217.3 1473.69C1214.83 1473.69 1212.82 1473.19 1211.27 1472.19C1209.73 1471.18 1208.55 1469.72 1207.74 1467.82C1206.94 1465.91 1206.54 1463.86 1206.54 1461.68C1206.54 1459.29 1206.99 1457.21 1207.89 1455.44C1208.81 1453.66 1210.11 1452.31 1211.78 1451.39C1213.47 1450.47 1215.33 1450 1217.35 1450C1219.64 1450 1221.57 1450.59 1223.13 1451.75C1224.69 1452.92 1225.78 1454.56 1226.39 1456.68L1223.41 1457.38C1222.88 1455.71 1222.11 1454.5 1221.1 1453.74C1220.09 1452.98 1218.82 1452.6 1217.28 1452.6C1215.52 1452.6 1214.05 1453.02 1212.86 1453.86C1211.69 1454.71 1210.86 1455.84 1210.38 1457.27C1209.9 1458.69 1209.66 1460.15 1209.66 1461.66C1209.66 1463.61 1209.94 1465.31 1210.5 1466.77C1211.08 1468.22 1211.96 1469.3 1213.16 1470.02C1214.36 1470.74 1215.65 1471.1 1217.05 1471.1C1218.75 1471.1 1220.19 1470.61 1221.36 1469.63C1222.54 1468.65 1223.34 1467.2 1223.75 1465.27ZM1246.88 1465.27L1249.91 1466.03C1249.27 1468.52 1248.13 1470.42 1246.47 1471.74C1244.83 1473.04 1242.81 1473.69 1240.43 1473.69C1237.96 1473.69 1235.95 1473.19 1234.39 1472.19C1232.85 1471.18 1231.68 1469.72 1230.86 1467.82C1230.06 1465.91 1229.66 1463.86 1229.66 1461.68C1229.66 1459.29 1230.11 1457.21 1231.02 1455.44C1231.94 1453.66 1233.23 1452.31 1234.91 1451.39C1236.6 1450.47 1238.45 1450 1240.47 1450C1242.76 1450 1244.69 1450.59 1246.25 1451.75C1247.82 1452.92 1248.9 1454.56 1249.52 1456.68L1246.54 1457.38C1246 1455.71 1245.23 1454.5 1244.22 1453.74C1243.21 1452.98 1241.94 1452.6 1240.41 1452.6C1238.65 1452.6 1237.18 1453.02 1235.99 1453.86C1234.81 1454.71 1233.98 1455.84 1233.5 1457.27C1233.02 1458.69 1232.78 1460.15 1232.78 1461.66C1232.78 1463.61 1233.07 1465.31 1233.63 1466.77C1234.2 1468.22 1235.09 1469.3 1236.28 1470.02C1237.48 1470.74 1238.78 1471.1 1240.18 1471.1C1241.87 1471.1 1243.31 1470.61 1244.49 1469.63C1245.67 1468.65 1246.46 1467.2 1246.88 1465.27ZM1251.19 1473.69L1257.83 1450H1260.08L1253.46 1473.69H1251.19ZM1262.21 1473.3V1450.39H1265.02V1458.61C1266.33 1457.09 1267.99 1456.33 1269.99 1456.33C1271.22 1456.33 1272.28 1456.58 1273.19 1457.07C1274.1 1457.54 1274.74 1458.21 1275.13 1459.07C1275.52 1459.92 1275.72 1461.16 1275.72 1462.78V1473.3H1272.91V1462.78C1272.91 1461.38 1272.6 1460.36 1271.99 1459.72C1271.38 1459.08 1270.52 1458.75 1269.41 1458.75C1268.58 1458.75 1267.79 1458.97 1267.05 1459.41C1266.32 1459.84 1265.8 1460.42 1265.49 1461.16C1265.18 1461.9 1265.02 1462.92 1265.02 1464.22V1473.3H1262.21Z" fill="white"/>
<path d="M361.887 1598H357.492V1570C356.434 1571.01 355.043 1572.02 353.317 1573.02C351.608 1574.03 350.07 1574.79 348.703 1575.29V1571.05C351.161 1569.89 353.309 1568.49 355.148 1566.85C356.988 1565.2 358.29 1563.61 359.055 1562.06H361.887V1598ZM374.802 1598V1562.21H381.931L390.402 1587.55C391.184 1589.91 391.753 1591.68 392.111 1592.85C392.518 1591.55 393.153 1589.63 394.016 1587.11L402.585 1562.21H408.957V1598H404.392V1568.04L393.991 1598H389.719L379.367 1567.53V1598H374.802Z" fill="white"/>
<path d="M522.184 1598H517.789V1570C516.731 1571.01 515.34 1572.02 513.614 1573.02C511.905 1574.03 510.367 1574.79 509 1575.29V1571.05C511.458 1569.89 513.606 1568.49 515.445 1566.85C517.285 1565.2 518.587 1563.61 519.352 1562.06H522.184V1598ZM533.463 1580.35C533.463 1576.12 533.894 1572.72 534.757 1570.14C535.636 1567.56 536.93 1565.56 538.639 1564.16C540.364 1562.76 542.529 1562.06 545.133 1562.06C547.053 1562.06 548.738 1562.45 550.187 1563.23C551.635 1564 552.831 1565.11 553.775 1566.58C554.72 1568.03 555.46 1569.8 555.997 1571.9C556.534 1573.98 556.803 1576.8 556.803 1580.35C556.803 1584.55 556.372 1587.94 555.509 1590.53C554.646 1593.1 553.352 1595.09 551.627 1596.51C549.918 1597.91 547.753 1598.61 545.133 1598.61C541.682 1598.61 538.972 1597.37 537.003 1594.9C534.643 1591.92 533.463 1587.07 533.463 1580.35ZM537.98 1580.35C537.98 1586.22 538.663 1590.14 540.03 1592.09C541.414 1594.03 543.115 1595 545.133 1595C547.151 1595 548.844 1594.02 550.211 1592.07C551.595 1590.11 552.286 1586.21 552.286 1580.35C552.286 1574.46 551.595 1570.54 550.211 1568.61C548.844 1566.67 547.135 1565.7 545.084 1565.7C543.066 1565.7 541.455 1566.55 540.25 1568.26C538.736 1570.44 537.98 1574.47 537.98 1580.35ZM562.931 1598V1562.21H570.06L578.531 1587.55C579.313 1589.91 579.882 1591.68 580.24 1592.85C580.647 1591.55 581.282 1589.63 582.145 1587.11L590.714 1562.21H597.086V1598H592.521V1568.04L582.12 1598H577.848L567.496 1567.53V1598H562.931Z" fill="white"/>
<path d="M697 1588.62L701.614 1588.23C701.956 1590.48 702.745 1592.17 703.982 1593.31C705.236 1594.44 706.741 1595 708.499 1595C710.615 1595 712.405 1594.2 713.87 1592.6C715.335 1591.01 716.067 1588.89 716.067 1586.26C716.067 1583.75 715.359 1581.77 713.943 1580.32C712.544 1578.88 710.704 1578.15 708.426 1578.15C707.01 1578.15 705.732 1578.48 704.593 1579.13C703.453 1579.76 702.558 1580.59 701.907 1581.62L697.781 1581.08L701.248 1562.7H719.046V1566.9H704.764L702.835 1576.52C704.983 1575.02 707.238 1574.27 709.598 1574.27C712.723 1574.27 715.359 1575.35 717.508 1577.52C719.656 1579.68 720.73 1582.46 720.73 1585.87C720.73 1589.11 719.786 1591.9 717.898 1594.26C715.603 1597.16 712.47 1598.61 708.499 1598.61C705.244 1598.61 702.583 1597.7 700.516 1595.88C698.465 1594.05 697.293 1591.64 697 1588.62ZM724.832 1580.35C724.832 1576.12 725.263 1572.72 726.126 1570.14C727.005 1567.56 728.299 1565.56 730.008 1564.16C731.733 1562.76 733.898 1562.06 736.502 1562.06C738.422 1562.06 740.107 1562.45 741.556 1563.23C743.004 1564 744.2 1565.11 745.144 1566.58C746.089 1568.03 746.829 1569.8 747.366 1571.9C747.903 1573.98 748.172 1576.8 748.172 1580.35C748.172 1584.55 747.741 1587.94 746.878 1590.53C746.015 1593.1 744.721 1595.09 742.996 1596.51C741.287 1597.91 739.122 1598.61 736.502 1598.61C733.051 1598.61 730.341 1597.37 728.372 1594.9C726.012 1591.92 724.832 1587.07 724.832 1580.35ZM729.349 1580.35C729.349 1586.22 730.032 1590.14 731.399 1592.09C732.783 1594.03 734.484 1595 736.502 1595C738.52 1595 740.213 1594.02 741.58 1592.07C742.964 1590.11 743.655 1586.21 743.655 1580.35C743.655 1574.46 742.964 1570.54 741.58 1568.61C740.213 1566.67 738.504 1565.7 736.453 1565.7C734.435 1565.7 732.824 1566.55 731.619 1568.26C730.105 1570.44 729.349 1574.47 729.349 1580.35ZM754.3 1598V1562.21H761.429L769.9 1587.55C770.682 1589.91 771.251 1591.68 771.609 1592.85C772.016 1591.55 772.651 1589.63 773.514 1587.11L782.083 1562.21H788.455V1598H783.89V1568.04L773.489 1598H769.217L758.865 1567.53V1598H754.3Z" fill="white"/>
<path d="M901.184 1598H896.789V1570C895.731 1571.01 894.34 1572.02 892.614 1573.02C890.905 1574.03 889.367 1574.79 888 1575.29V1571.05C890.458 1569.89 892.606 1568.49 894.445 1566.85C896.285 1565.2 897.587 1563.61 898.352 1562.06H901.184V1598ZM912.463 1580.35C912.463 1576.12 912.894 1572.72 913.757 1570.14C914.636 1567.56 915.93 1565.56 917.639 1564.16C919.364 1562.76 921.529 1562.06 924.133 1562.06C926.053 1562.06 927.738 1562.45 929.187 1563.23C930.635 1564 931.831 1565.11 932.775 1566.58C933.719 1568.03 934.46 1569.8 934.997 1571.9C935.534 1573.98 935.803 1576.8 935.803 1580.35C935.803 1584.55 935.372 1587.94 934.509 1590.53C933.646 1593.1 932.352 1595.09 930.627 1596.51C928.918 1597.91 926.753 1598.61 924.133 1598.61C920.682 1598.61 917.972 1597.37 916.003 1594.9C913.643 1591.92 912.463 1587.07 912.463 1580.35ZM916.98 1580.35C916.98 1586.22 917.663 1590.14 919.03 1592.09C920.414 1594.03 922.115 1595 924.133 1595C926.151 1595 927.844 1594.02 929.211 1592.07C930.594 1590.11 931.286 1586.21 931.286 1580.35C931.286 1574.46 930.594 1570.54 929.211 1568.61C927.844 1566.67 926.135 1565.7 924.084 1565.7C922.066 1565.7 920.455 1566.55 919.25 1568.26C917.736 1570.44 916.98 1574.47 916.98 1580.35ZM940.295 1580.35C940.295 1576.12 940.726 1572.72 941.589 1570.14C942.468 1567.56 943.762 1565.56 945.471 1564.16C947.196 1562.76 949.361 1562.06 951.965 1562.06C953.886 1562.06 955.57 1562.45 957.019 1563.23C958.467 1564 959.664 1565.11 960.608 1566.58C961.552 1568.03 962.292 1569.8 962.829 1571.9C963.366 1573.98 963.635 1576.8 963.635 1580.35C963.635 1584.55 963.204 1587.94 962.341 1590.53C961.478 1593.1 960.184 1595.09 958.459 1596.51C956.75 1597.91 954.585 1598.61 951.965 1598.61C948.514 1598.61 945.804 1597.37 943.835 1594.9C941.475 1591.92 940.295 1587.07 940.295 1580.35ZM944.812 1580.35C944.812 1586.22 945.495 1590.14 946.862 1592.09C948.246 1594.03 949.947 1595 951.965 1595C953.983 1595 955.676 1594.02 957.043 1592.07C958.427 1590.11 959.118 1586.21 959.118 1580.35C959.118 1574.46 958.427 1570.54 957.043 1568.61C955.676 1566.67 953.967 1565.7 951.916 1565.7C949.898 1565.7 948.287 1566.55 947.082 1568.26C945.568 1570.44 944.812 1574.47 944.812 1580.35ZM969.759 1598V1562.21H976.889L985.359 1587.55C986.149 1589.91 986.719 1591.68 987.069 1592.85C987.479 1591.55 988.119 1589.63 988.979 1587.11L997.549 1562.21H1003.92V1598H999.349V1568.04L988.949 1598H984.679L974.329 1567.53V1598H969.759Z" fill="white"/>
<path d="M1117.19 1598H1112.79V1570C1111.73 1571.01 1110.34 1572.02 1108.62 1573.02C1106.91 1574.03 1105.37 1574.79 1104 1575.29V1571.05C1106.46 1569.89 1108.61 1568.49 1110.45 1566.85C1112.29 1565.2 1113.59 1563.61 1114.36 1562.06H1117.19V1598ZM1130.05 1598V1562.21H1143.48C1146.22 1562.21 1148.4 1562.58 1150.05 1563.31C1151.71 1564.02 1153 1565.14 1153.93 1566.65C1154.87 1568.15 1155.35 1569.72 1155.35 1571.36C1155.35 1572.89 1154.93 1574.33 1154.1 1575.69C1153.27 1577.04 1152.02 1578.13 1150.34 1578.96C1152.51 1579.59 1154.17 1580.67 1155.32 1582.2C1156.49 1583.73 1157.08 1585.54 1157.08 1587.62C1157.08 1589.3 1156.72 1590.86 1156.01 1592.31C1155.31 1593.74 1154.43 1594.85 1153.39 1595.63C1152.35 1596.41 1151.04 1597.01 1149.46 1597.41C1147.9 1597.8 1145.98 1598 1143.7 1598H1130.05ZM1134.79 1577.25H1142.53C1144.63 1577.25 1146.13 1577.11 1147.05 1576.83C1148.25 1576.47 1149.15 1575.88 1149.76 1575.05C1150.37 1574.22 1150.68 1573.18 1150.68 1571.93C1150.68 1570.74 1150.4 1569.7 1149.83 1568.8C1149.26 1567.89 1148.45 1567.27 1147.39 1566.95C1146.33 1566.6 1144.51 1566.43 1141.94 1566.43H1134.79V1577.25ZM1134.79 1593.78H1143.7C1145.23 1593.78 1146.3 1593.72 1146.92 1593.61C1148.01 1593.41 1148.93 1593.08 1149.66 1592.63C1150.39 1592.17 1150.99 1591.51 1151.46 1590.65C1151.94 1589.77 1152.17 1588.76 1152.17 1587.62C1152.17 1586.29 1151.83 1585.13 1151.15 1584.16C1150.46 1583.16 1149.51 1582.47 1148.29 1582.08C1147.09 1581.68 1145.34 1581.47 1143.07 1581.47H1134.79V1593.78Z" fill="white"/>
<path d="M217 283H200V1514H217V283Z" fill="#D9D9D9"/>
<path d="M208 192L264.292 297H151.708L208 192Z" fill="#D9D9D9"/>
<path d="M1467 1514V1497H215V1514H1467Z" fill="#D9D9D9"/>
<path d="M1547 1505L1442 1561.29V1448.71L1547 1505Z" fill="#D9D9D9"/>
<path d="M1247 1497V1480H1230V1497H1247Z" fill="#E68B42"/>
<path d="M1278 1497V1480H1261V1497H1278Z" fill="#E68B42"/>
<path d="M387 1488H370V1524H387V1488Z" fill="#D9D9D9"/>
<path d="M575 1488H558V1524H575V1488Z" fill="#D9D9D9"/>
<path d="M763 1488H746V1524H763V1488Z" fill="#D9D9D9"/>
<path d="M951 1488H934V1524H951V1488Z" fill="#D9D9D9"/>
<path d="M1139 1488H1122V1524H1139V1488Z" fill="#D9D9D9"/>
<path d="M387 379H370V954H387V379Z" fill="#E68B42"/>
<path d="M575 954H558V1215H575V954Z" fill="#E68B42"/>
<path d="M763 1215H746V1364H763V1215Z" fill="#E68B42"/>
<path d="M746 1347V1364H951V1347H746Z" fill="#E68B42"/>
<path d="M558 1199V1216H763V1199H558Z" fill="#E68B42"/>
<path d="M370 938V955H575V938H370Z" fill="#E68B42"/>
<path d="M309 379V396H387V379H309Z" fill="#E68B42"/>
<path d="M934 1424V1441H1139V1424H934Z" fill="#E68B42"/>
<path d="M1127 1482V1499H1217V1482H1127Z" fill="#E68B42"/>
<path d="M951 1347H934V1434H951V1347Z" fill="#E68B42"/>
<path d="M1139 1438H1122V1488H1139V1438Z" fill="#E68B42"/>
<path d="M262 396V379H245V396H262Z" fill="#E68B42"/>
<path d="M293 396V379H276V396H293Z" fill="#E68B42"/>
<path d="M329 267H429V317H379L358 331.5L354 317H329V267Z" fill="#7CC060"/>
<path d="M365.489 279.727V303H361.239L351.114 288.352H350.943V303H346.023V279.727H350.341L360.386 294.364H360.591V279.727H365.489ZM377.349 303.341C375.584 303.341 374.058 302.966 372.77 302.216C371.49 301.458 370.501 300.405 369.804 299.057C369.107 297.701 368.759 296.129 368.759 294.341C368.759 292.538 369.107 290.962 369.804 289.614C370.501 288.258 371.49 287.205 372.77 286.455C374.058 285.697 375.584 285.318 377.349 285.318C379.115 285.318 380.637 285.697 381.918 286.455C383.205 287.205 384.198 288.258 384.895 289.614C385.592 290.962 385.94 292.538 385.94 294.341C385.94 296.129 385.592 297.701 384.895 299.057C384.198 300.405 383.205 301.458 381.918 302.216C380.637 302.966 379.115 303.341 377.349 303.341ZM377.372 299.591C378.175 299.591 378.846 299.364 379.384 298.909C379.921 298.447 380.327 297.818 380.599 297.023C380.88 296.227 381.02 295.322 381.02 294.307C381.02 293.292 380.88 292.386 380.599 291.591C380.327 290.795 379.921 290.167 379.384 289.705C378.846 289.242 378.175 289.011 377.372 289.011C376.562 289.011 375.88 289.242 375.327 289.705C374.781 290.167 374.368 290.795 374.088 291.591C373.815 292.386 373.679 293.292 373.679 294.307C373.679 295.322 373.815 296.227 374.088 297.023C374.368 297.818 374.781 298.447 375.327 298.909C375.88 299.364 376.562 299.591 377.372 299.591ZM392.094 303L387.344 285.545H392.241L394.946 297.273H395.105L397.923 285.545H402.73L405.594 297.205H405.741L408.401 285.545H413.287L408.548 303H403.423L400.423 292.023H400.207L397.207 303H392.094Z" fill="white"/>
<path d="M144.364 1461.42C140.516 1461.42 136.978 1460.92 133.751 1459.92C130.514 1458.91 127.536 1457.48 124.818 1455.62V1452.44C125.826 1453.17 127.068 1453.86 128.544 1454.5C130.01 1455.13 131.623 1455.69 133.385 1456.17C135.136 1456.64 136.948 1457.02 138.821 1457.3C140.694 1457.56 142.541 1457.69 144.364 1457.69C146.786 1457.69 149.245 1457.46 151.739 1456.99C154.233 1456.52 156.549 1455.89 158.687 1455.1C160.825 1454.3 162.565 1453.42 163.909 1452.44V1455.62C161.191 1457.48 158.219 1458.91 154.991 1459.92C151.754 1460.92 148.212 1461.42 144.364 1461.42ZM160 1446.63H128.727V1436.07C128.727 1433.61 129.17 1431.61 130.056 1430.05C130.931 1428.48 132.117 1427.32 133.614 1426.57C135.11 1425.82 136.78 1425.44 138.622 1425.44C140.465 1425.44 142.139 1425.82 143.646 1426.57C145.153 1427.31 146.354 1428.46 147.25 1430.02C148.135 1431.58 148.578 1433.57 148.578 1436.01V1443.58H145.219V1436.13C145.219 1434.45 144.929 1433.1 144.348 1432.08C143.768 1431.06 142.984 1430.33 141.997 1429.87C140.999 1429.4 139.874 1429.17 138.622 1429.17C137.37 1429.17 136.25 1429.4 135.263 1429.87C134.275 1430.33 133.502 1431.07 132.942 1432.1C132.372 1433.13 132.087 1434.49 132.087 1436.19V1442.85H160V1446.63ZM160 1419.83H136.545V1416.22H160V1419.83ZM132.636 1418C132.636 1418.7 132.397 1419.3 131.919 1419.81C131.44 1420.31 130.865 1420.56 130.193 1420.56C129.521 1420.56 128.946 1420.31 128.468 1419.81C127.989 1419.3 127.75 1418.7 127.75 1418C127.75 1417.29 127.989 1416.69 128.468 1416.19C128.946 1415.68 129.521 1415.43 130.193 1415.43C130.865 1415.43 131.44 1415.68 131.919 1416.19C132.397 1416.69 132.636 1417.29 132.636 1418ZM160.489 1400.1C160.489 1402.21 159.985 1404.07 158.977 1405.67C157.969 1407.26 156.559 1408.5 154.747 1409.39C152.935 1410.28 150.818 1410.72 148.395 1410.72C145.952 1410.72 143.819 1410.28 141.997 1409.39C140.175 1408.5 138.76 1407.26 137.752 1405.67C136.744 1404.07 136.24 1402.21 136.24 1400.1C136.24 1397.98 136.744 1396.12 137.752 1394.54C138.76 1392.94 140.175 1391.7 141.997 1390.81C143.819 1389.92 145.952 1389.47 148.395 1389.47C150.818 1389.47 152.935 1389.92 154.747 1390.81C156.559 1391.7 157.969 1392.94 158.977 1394.54C159.985 1396.12 160.489 1397.98 160.489 1400.1ZM157.251 1400.1C157.251 1398.49 156.839 1397.16 156.015 1396.12C155.19 1395.09 154.106 1394.32 152.762 1393.82C151.418 1393.32 149.963 1393.07 148.395 1393.07C146.827 1393.07 145.366 1393.32 144.012 1393.82C142.658 1394.32 141.564 1395.09 140.729 1396.12C139.895 1397.16 139.477 1398.49 139.477 1400.1C139.477 1401.7 139.895 1403.03 140.729 1404.07C141.564 1405.1 142.658 1405.87 144.012 1406.37C145.366 1406.87 146.827 1407.12 148.395 1407.12C149.963 1407.12 151.418 1406.87 152.762 1406.37C154.106 1405.87 155.19 1405.1 156.015 1404.07C156.839 1403.03 157.251 1401.7 157.251 1400.1ZM145.891 1380.36H160V1383.97H136.545V1380.48H140.21V1380.18C139.019 1379.63 138.062 1378.79 137.339 1377.68C136.607 1376.56 136.24 1375.11 136.24 1373.34C136.24 1371.75 136.566 1370.36 137.217 1369.17C137.859 1367.98 138.836 1367.05 140.149 1366.39C141.452 1365.73 143.101 1365.4 145.097 1365.4H160L160 1369H145.341C143.498 1369 142.063 1369.48 141.035 1370.44C139.996 1371.39 139.477 1372.71 139.477 1374.38C139.477 1375.53 139.727 1376.56 140.225 1377.46C140.724 1378.36 141.452 1379.06 142.409 1379.58C143.366 1380.1 144.527 1380.36 145.891 1380.36ZM160.489 1348.98C160.489 1351.24 159.99 1353.19 158.992 1354.83C157.984 1356.46 156.58 1357.71 154.778 1358.6C152.966 1359.47 150.858 1359.91 148.456 1359.91C146.054 1359.91 143.936 1359.47 142.104 1358.6C140.261 1357.71 138.826 1356.48 137.798 1354.9C136.759 1353.32 136.24 1351.46 136.24 1349.35C136.24 1348.12 136.444 1346.92 136.851 1345.73C137.258 1344.54 137.92 1343.45 138.836 1342.47C139.742 1341.5 140.943 1340.72 142.44 1340.14C143.936 1339.56 145.779 1339.27 147.967 1339.27H149.494V1357.35H146.379V1342.93C145.056 1342.93 143.875 1343.2 142.837 1343.73C141.798 1344.25 140.979 1344.99 140.378 1345.96C139.778 1346.91 139.477 1348.04 139.477 1349.35C139.477 1350.78 139.834 1352.02 140.546 1353.07C141.249 1354.11 142.165 1354.91 143.295 1355.47C144.425 1356.03 145.636 1356.31 146.929 1356.31H149.006C150.777 1356.31 152.279 1356 153.51 1355.39C154.732 1354.77 155.663 1353.91 156.305 1352.81C156.936 1351.71 157.251 1350.43 157.251 1348.98C157.251 1348.03 157.119 1347.18 156.854 1346.41C156.58 1345.64 156.172 1344.97 155.633 1344.41C155.083 1343.85 154.401 1343.42 153.587 1343.12L154.564 1339.63C155.745 1340 156.783 1340.62 157.679 1341.48C158.565 1342.35 159.257 1343.42 159.756 1344.69C160.244 1345.96 160.489 1347.39 160.489 1348.98ZM160.489 1323.95C160.489 1326.21 159.99 1328.16 158.992 1329.8C157.984 1331.43 156.58 1332.69 154.778 1333.57C152.966 1334.45 150.858 1334.89 148.456 1334.89C146.054 1334.89 143.936 1334.45 142.104 1333.57C140.261 1332.69 138.826 1331.45 137.798 1329.88C136.759 1328.29 136.24 1326.44 136.24 1324.32C136.24 1323.1 136.444 1321.89 136.851 1320.7C137.258 1319.51 137.92 1318.42 138.836 1317.45C139.742 1316.47 140.943 1315.69 142.44 1315.11C143.936 1314.53 145.779 1314.24 147.967 1314.24H149.494V1332.32H146.379V1317.91C145.056 1317.91 143.875 1318.17 142.837 1318.7C141.798 1319.22 140.979 1319.96 140.378 1320.93C139.778 1321.89 139.477 1323.02 139.477 1324.32C139.477 1325.75 139.834 1327 140.546 1328.04C141.249 1329.08 142.165 1329.88 143.295 1330.44C144.425 1331 145.636 1331.28 146.929 1331.28H149.006C150.777 1331.28 152.279 1330.98 153.51 1330.37C154.732 1329.74 155.663 1328.88 156.305 1327.78C156.936 1326.69 157.251 1325.41 157.251 1323.95C157.251 1323.01 157.119 1322.15 156.854 1321.39C156.58 1320.61 156.172 1319.95 155.633 1319.39C155.083 1318.83 154.401 1318.39 153.587 1318.09L154.564 1314.61C155.745 1314.97 156.783 1315.59 157.679 1316.45C158.565 1317.32 159.257 1318.39 159.756 1319.66C160.244 1320.93 160.489 1322.36 160.489 1323.95ZM160 1308.76H136.545V1305.28H140.088V1305.03C138.928 1304.6 137.986 1303.83 137.263 1302.71C136.54 1301.59 136.179 1300.33 136.179 1298.92C136.179 1298.66 136.184 1298.33 136.194 1297.93C136.204 1297.53 136.22 1297.23 136.24 1297.03H139.905C139.874 1297.15 139.828 1297.43 139.767 1297.87C139.696 1298.3 139.661 1298.75 139.661 1299.23C139.661 1300.37 139.9 1301.39 140.378 1302.28C140.846 1303.17 141.498 1303.87 142.333 1304.39C143.157 1304.9 144.099 1305.15 145.158 1305.15H160V1308.76ZM154.503 1271.5H134.347V1268.08H154.503V1271.5ZM146.135 1279.87H142.714V1259.72H146.135V1279.87ZM136.545 1222.64C134.998 1222.82 133.797 1223.56 132.942 1224.87C132.087 1226.17 131.659 1227.77 131.659 1229.66C131.659 1231.04 131.883 1232.26 132.331 1233.29C132.779 1234.32 133.395 1235.13 134.179 1235.71C134.962 1236.28 135.853 1236.56 136.851 1236.56C137.686 1236.56 138.403 1236.36 139.004 1235.97C139.594 1235.56 140.088 1235.04 140.485 1234.41C140.872 1233.78 141.193 1233.12 141.447 1232.42C141.691 1231.73 141.89 1231.1 142.043 1230.52L142.898 1227.34C143.112 1226.52 143.407 1225.62 143.783 1224.62C144.16 1223.61 144.674 1222.65 145.326 1221.74C145.967 1220.81 146.792 1220.05 147.799 1219.44C148.807 1218.84 150.044 1218.54 151.51 1218.54C153.2 1218.54 154.727 1218.99 156.091 1219.87C157.455 1220.75 158.539 1222.03 159.343 1223.72C160.148 1225.4 160.55 1227.44 160.55 1229.84C160.55 1232.08 160.188 1234.02 159.466 1235.66C158.743 1237.29 157.735 1238.57 156.442 1239.51C155.149 1240.44 153.648 1240.96 151.938 1241.08V1237.17C153.118 1237.07 154.096 1236.67 154.869 1235.98C155.633 1235.28 156.203 1234.39 156.58 1233.33C156.946 1232.25 157.129 1231.09 157.129 1229.84C157.129 1228.4 156.895 1227.1 156.427 1225.95C155.948 1224.8 155.287 1223.89 154.442 1223.22C153.587 1222.54 152.589 1222.21 151.449 1222.21C150.411 1222.21 149.566 1222.5 148.914 1223.08C148.263 1223.66 147.733 1224.42 147.326 1225.37C146.919 1226.32 146.562 1227.34 146.257 1228.44L145.158 1232.29C144.455 1234.73 143.453 1236.66 142.15 1238.09C140.846 1239.51 139.141 1240.23 137.034 1240.23C135.283 1240.23 133.756 1239.75 132.453 1238.81C131.14 1237.85 130.122 1236.57 129.399 1234.96C128.666 1233.34 128.3 1231.53 128.3 1229.54C128.3 1227.52 128.661 1225.73 129.384 1224.16C130.096 1222.6 131.074 1221.35 132.316 1220.44C133.558 1219.51 134.968 1219.02 136.545 1218.97V1222.64ZM160.489 1202.97C160.489 1205.23 159.99 1207.18 158.992 1208.82C157.984 1210.45 156.58 1211.71 154.778 1212.59C152.966 1213.47 150.858 1213.91 148.456 1213.91C146.054 1213.91 143.936 1213.47 142.104 1212.59C140.261 1211.71 138.826 1210.47 137.798 1208.9C136.759 1207.31 136.24 1205.46 136.24 1203.34C136.24 1202.12 136.444 1200.91 136.851 1199.72C137.258 1198.53 137.92 1197.44 138.836 1196.47C139.742 1195.49 140.943 1194.71 142.44 1194.13C143.936 1193.55 145.779 1193.26 147.967 1193.26H149.494V1211.34H146.379V1196.93C145.056 1196.93 143.875 1197.19 142.837 1197.72C141.798 1198.24 140.979 1198.98 140.378 1199.95C139.778 1200.91 139.477 1202.04 139.477 1203.34C139.477 1204.77 139.834 1206.02 140.546 1207.06C141.249 1208.1 142.165 1208.9 143.295 1209.46C144.425 1210.02 145.636 1210.3 146.929 1210.3H149.006C150.777 1210.3 152.279 1210 153.51 1209.39C154.732 1208.76 155.663 1207.9 156.305 1206.81C156.936 1205.71 157.251 1204.43 157.251 1202.97C157.251 1202.03 157.119 1201.17 156.854 1200.41C156.58 1199.63 156.172 1198.97 155.633 1198.41C155.083 1197.85 154.401 1197.41 153.587 1197.11L154.564 1193.63C155.745 1193.99 156.783 1194.61 157.679 1195.47C158.565 1196.34 159.257 1197.41 159.756 1198.68C160.244 1199.95 160.489 1201.38 160.489 1202.97ZM160.489 1178.25C160.489 1180.45 159.969 1182.34 158.931 1183.93C157.893 1185.52 156.462 1186.74 154.64 1187.6C152.818 1188.45 150.736 1188.88 148.395 1188.88C146.013 1188.88 143.911 1188.44 142.088 1187.57C140.256 1186.68 138.826 1185.45 137.798 1183.87C136.759 1182.28 136.24 1180.43 136.24 1178.31C136.24 1176.66 136.545 1175.18 137.156 1173.85C137.767 1172.53 138.622 1171.45 139.722 1170.6C140.821 1169.76 142.104 1169.23 143.57 1169.03V1172.63C142.501 1172.91 141.554 1173.52 140.729 1174.46C139.895 1175.4 139.477 1176.66 139.477 1178.25C139.477 1179.66 139.844 1180.89 140.577 1181.95C141.299 1182.99 142.323 1183.81 143.646 1184.4C144.959 1184.98 146.501 1185.27 148.273 1185.27C150.085 1185.27 151.663 1184.99 153.006 1184.42C154.35 1183.84 155.394 1183.02 156.137 1181.98C156.88 1180.92 157.251 1179.68 157.251 1178.25C157.251 1177.31 157.089 1176.46 156.763 1175.7C156.437 1174.94 155.969 1174.29 155.358 1173.76C154.747 1173.23 154.014 1172.86 153.159 1172.63V1169.03C154.544 1169.23 155.791 1169.73 156.9 1170.54C158 1171.33 158.875 1172.39 159.527 1173.7C160.168 1175 160.489 1176.52 160.489 1178.25ZM150.411 1148.98H136.545V1145.37H160V1148.98H156.03V1149.22C157.221 1149.77 158.234 1150.63 159.069 1151.79C159.893 1152.95 160.305 1154.41 160.305 1156.19C160.305 1157.65 159.985 1158.95 159.343 1160.09C158.692 1161.23 157.715 1162.13 156.412 1162.78C155.098 1163.43 153.444 1163.76 151.449 1163.76H136.545V1160.16H151.205C152.915 1160.16 154.279 1159.68 155.297 1158.72C156.315 1157.75 156.824 1156.52 156.824 1155.02C156.824 1154.13 156.595 1153.22 156.137 1152.29C155.679 1151.36 154.976 1150.57 154.029 1149.94C153.083 1149.3 151.876 1148.98 150.411 1148.98ZM160 1138.77H136.545V1135.29H140.088V1135.05C138.928 1134.62 137.986 1133.85 137.263 1132.73C136.54 1131.61 136.179 1130.34 136.179 1128.94C136.179 1128.68 136.184 1128.34 136.194 1127.95C136.204 1127.55 136.22 1127.25 136.24 1127.05H139.905C139.874 1127.17 139.828 1127.45 139.767 1127.89C139.696 1128.31 139.661 1128.77 139.661 1129.25C139.661 1130.39 139.9 1131.4 140.378 1132.3C140.846 1133.19 141.498 1133.89 142.333 1134.41C143.157 1134.92 144.099 1135.17 145.158 1135.17H160V1138.77ZM160 1122.77H136.545V1119.17H160V1122.77ZM132.636 1120.94C132.636 1121.64 132.397 1122.25 131.919 1122.76C131.44 1123.26 130.865 1123.51 130.193 1123.51C129.521 1123.51 128.946 1123.26 128.468 1122.76C127.989 1122.25 127.75 1121.64 127.75 1120.94C127.75 1120.24 127.989 1119.64 128.468 1119.14C128.946 1118.63 129.521 1118.38 130.193 1118.38C130.865 1118.38 131.44 1118.63 131.919 1119.14C132.397 1119.64 132.636 1120.24 132.636 1120.94ZM136.545 1102.37H139.599V1114.53H136.545V1102.37ZM130.926 1110.98V1107.38H153.281C154.299 1107.38 155.063 1107.23 155.572 1106.94C156.071 1106.63 156.406 1106.24 156.58 1105.78C156.742 1105.3 156.824 1104.79 156.824 1104.26C156.824 1103.87 156.804 1103.54 156.763 1103.29C156.712 1103.03 156.671 1102.83 156.641 1102.68L159.878 1101.94C159.969 1102.19 160.061 1102.53 160.153 1102.97C160.254 1103.4 160.305 1103.96 160.305 1104.63C160.305 1105.65 160.087 1106.65 159.649 1107.62C159.211 1108.59 158.544 1109.39 157.648 1110.04C156.753 1110.67 155.623 1110.98 154.259 1110.98H130.926ZM168.795 1094.63C168.795 1095.24 168.745 1095.78 168.643 1096.26C168.551 1096.74 168.46 1097.07 168.368 1097.26L165.192 1096.34C165.416 1095.46 165.497 1094.69 165.436 1094.02C165.375 1093.35 165.075 1092.75 164.535 1092.23C164.006 1091.7 163.146 1091.22 161.955 1090.78L160.122 1090.11L136.545 1098.78V1094.87L155.236 1088.4V1088.15L136.545 1081.68V1077.77L163.42 1087.73C164.632 1088.17 165.635 1088.73 166.429 1089.39C167.233 1090.05 167.828 1090.82 168.215 1091.7C168.602 1092.56 168.795 1093.54 168.795 1094.63ZM138.5 1035.27V1039.05C137.411 1039.28 136.454 1039.67 135.629 1040.23C134.805 1040.78 134.112 1041.45 133.553 1042.25C132.982 1043.03 132.555 1043.9 132.27 1044.86C131.985 1045.81 131.842 1046.81 131.842 1047.85C131.842 1049.74 132.321 1051.46 133.278 1053C134.235 1054.52 135.645 1055.74 137.507 1056.64C139.37 1057.54 141.656 1057.99 144.364 1057.99C147.071 1057.99 149.357 1057.54 151.22 1056.64C153.083 1055.74 154.493 1054.52 155.45 1053C156.406 1051.46 156.885 1049.74 156.885 1047.85C156.885 1046.81 156.742 1045.81 156.457 1044.86C156.172 1043.9 155.75 1043.03 155.19 1042.25C154.62 1041.45 153.923 1040.78 153.098 1040.23C152.263 1039.67 151.306 1039.28 150.227 1039.05V1035.27C151.826 1035.55 153.256 1036.07 154.518 1036.82C155.78 1037.58 156.854 1038.51 157.74 1039.63C158.616 1040.75 159.282 1042.01 159.74 1043.41C160.199 1044.79 160.428 1046.27 160.428 1047.85C160.428 1050.52 159.776 1052.89 158.473 1054.97C157.17 1057.04 155.317 1058.68 152.915 1059.87C150.512 1061.06 147.662 1061.65 144.364 1061.65C141.065 1061.65 138.215 1061.06 135.813 1059.87C133.41 1058.68 131.557 1057.04 130.254 1054.97C128.951 1052.89 128.3 1050.52 128.3 1047.85C128.3 1046.27 128.529 1044.79 128.987 1043.41C129.445 1042.01 130.117 1040.75 131.002 1039.63C131.878 1038.51 132.947 1037.58 134.209 1036.82C135.461 1036.07 136.892 1035.55 138.5 1035.27ZM160 1029.64H136.545V1026.03H160V1029.64ZM132.636 1027.8C132.636 1028.51 132.397 1029.11 131.919 1029.62C131.44 1030.12 130.865 1030.37 130.193 1030.37C129.521 1030.37 128.946 1030.12 128.468 1029.62C127.989 1029.11 127.75 1028.51 127.75 1027.8C127.75 1027.1 127.989 1026.5 128.468 1026C128.946 1025.49 129.521 1025.24 130.193 1025.24C130.865 1025.24 131.44 1025.49 131.919 1026C132.397 1026.5 132.636 1027.1 132.636 1027.8ZM160 1019.43H136.545V1015.95H140.088V1015.71C138.928 1015.28 137.986 1014.51 137.263 1013.39C136.54 1012.27 136.179 1011 136.179 1009.6C136.179 1009.33 136.184 1009 136.194 1008.61C136.204 1008.21 136.22 1007.91 136.24 1007.7H139.905C139.874 1007.83 139.828 1008.11 139.767 1008.54C139.696 1008.97 139.661 1009.43 139.661 1009.9C139.661 1011.04 139.9 1012.06 140.378 1012.96C140.846 1013.84 141.498 1014.55 142.333 1015.06C143.157 1015.57 144.099 1015.83 145.158 1015.83H160V1019.43ZM160.489 994.619C160.489 996.817 159.969 998.711 158.931 1000.3C157.893 1001.89 156.462 1003.11 154.64 1003.96C152.818 1004.82 150.736 1005.25 148.395 1005.25C146.013 1005.25 143.911 1004.81 142.088 1003.93C140.256 1003.05 138.826 1001.82 137.798 1000.24C136.759 998.65 136.24 996.797 136.24 994.68C136.24 993.031 136.545 991.544 137.156 990.221C137.767 988.897 138.622 987.813 139.722 986.968C140.821 986.123 142.104 985.599 143.57 985.396V988.999C142.501 989.274 141.554 989.885 140.729 990.832C139.895 991.768 139.477 993.031 139.477 994.619C139.477 996.023 139.844 997.255 140.577 998.314C141.299 999.362 142.323 1000.18 143.646 1000.77C144.959 1001.35 146.501 1001.64 148.273 1001.64C150.085 1001.64 151.663 1001.36 153.006 1000.79C154.35 1000.21 155.394 999.393 156.137 998.344C156.88 997.286 157.251 996.044 157.251 994.619C157.251 993.682 157.089 992.832 156.763 992.069C156.437 991.305 155.969 990.659 155.358 990.129C154.747 989.6 154.014 989.223 153.159 988.999V985.396C154.544 985.599 155.791 986.103 156.9 986.907C158 987.701 158.875 988.755 159.527 990.068C160.168 991.371 160.489 992.888 160.489 994.619ZM128.727 976.524H160V980.127H128.727V976.524ZM160.489 960.09C160.489 962.35 159.99 964.299 158.992 965.938C157.984 967.567 156.58 968.824 154.778 969.71C152.966 970.585 150.858 971.023 148.456 971.023C146.054 971.023 143.936 970.585 142.104 969.71C140.261 968.824 138.826 967.592 137.798 966.014C136.759 964.426 136.24 962.573 136.24 960.456C136.24 959.234 136.444 958.028 136.851 956.837C137.258 955.646 137.92 954.562 138.836 953.585C139.742 952.607 140.943 951.829 142.44 951.248C143.936 950.668 145.779 950.378 147.967 950.378H149.494V968.457H146.379V954.043C145.056 954.043 143.875 954.307 142.837 954.837C141.798 955.356 140.979 956.099 140.378 957.066C139.778 958.023 139.477 959.153 139.477 960.456C139.477 961.891 139.834 963.133 140.546 964.182C141.249 965.22 142.165 966.019 143.295 966.579C144.425 967.139 145.636 967.419 146.929 967.419H149.006C150.777 967.419 152.279 967.114 153.51 966.503C154.732 965.882 155.663 965.022 156.305 963.922C156.936 962.823 157.251 961.545 157.251 960.09C157.251 959.143 157.119 958.288 156.854 957.524C156.58 956.751 156.172 956.084 155.633 955.524C155.083 954.964 154.401 954.531 153.587 954.226L154.564 950.744C155.745 951.111 156.783 951.727 157.679 952.592C158.565 953.457 159.257 954.526 159.756 955.799C160.244 957.071 160.489 958.502 160.489 960.09ZM146.807 937.2C150.655 937.2 154.197 937.704 157.435 938.712C160.662 939.709 163.634 941.14 166.352 943.003V946.179C165.344 945.446 164.103 944.764 162.626 944.133C161.161 943.491 159.552 942.931 157.801 942.453C156.04 941.974 154.223 941.603 152.35 941.338C150.467 941.063 148.619 940.926 146.807 940.926C144.384 940.926 141.926 941.16 139.431 941.628C136.937 942.097 134.621 942.728 132.484 943.522C130.346 944.316 128.605 945.201 127.261 946.179V943.003C129.979 941.14 132.957 939.709 136.194 938.712C139.421 937.704 142.959 937.2 146.807 937.2Z" fill="white"/>
</svg>
